<svg xmlns="http://www.w3.org/2000/svg" xmlns:xlink="http://www.w3.org/1999/xlink" xmlns:lucid="lucid" width="893.71" height="1271.82"><g transform="translate(-433.14655278534315 -50.577611978398636)" lucid:page-tab-id="0_0"><path d="M865 160c17.67 0 32 17.9 32 40s-14.33 40-32 40h-96c-17.67 0-32-17.9-32-40s14.33-40 32-40z" stroke="#333" stroke-width="2" fill="#ff8839"/><use xlink:href="#a" transform="matrix(1,0,0,1,742,165) translate(56.025 38.6)"/><path d="M737 347.92c0-4.42 3.55-8.44 7.94-9L889.06 321c4.4-.56 7.94 2.58 7.94 7v104c0 4.42-3.58 8-8 8H745c-4.42 0-8-3.58-8-8z" stroke="#333" stroke-width="2" fill="#ff8839"/><use xlink:href="#b" transform="matrix(1,0,0,1,742,345) translate(48.074999999999996 27)"/><use xlink:href="#c" transform="matrix(1,0,0,1,742,345) translate(9.574999999999989 48.6)"/><use xlink:href="#d" transform="matrix(1,0,0,1,742,345) translate(75.475 48.6)"/><use xlink:href="#e" transform="matrix(1,0,0,1,742,345) translate(95.475 48.6)"/><use xlink:href="#f" transform="matrix(1,0,0,1,742,345) translate(46.05 70.2)"/><path d="M811.1 525.4c3.26-2.98 8.54-2.98 11.8 0l98.2 90.2c3.26 2.98 3.26 7.82 0 10.8l-98.2 90.2c-3.26 2.98-8.54 2.98-11.8 0l-98.2-90.2c-3.26-2.98-3.26-7.82 0-10.8z" stroke="#fe5900" stroke-width="4" fill="#fff"/><use xlink:href="#g" transform="matrix(1,0,0,1,723,536) translate(19.57499999999999 73)"/><use xlink:href="#h" transform="matrix(1,0,0,1,723,536) translate(38.57499999999999 73)"/><use xlink:href="#i" transform="matrix(1,0,0,1,723,536) translate(104.475 73)"/><use xlink:href="#j" transform="matrix(1,0,0,1,723,536) translate(124.475 73)"/><use xlink:href="#k" transform="matrix(1,0,0,1,723,536) translate(4.125 94.6)"/><use xlink:href="#l" transform="matrix(1,0,0,1,723,536) translate(67.025 94.6)"/><use xlink:href="#m" transform="matrix(1,0,0,1,723,536) translate(128.925 94.6)"/><use xlink:href="#n" transform="matrix(1,0,0,1,723,536) translate(168.925 94.6)"/><use xlink:href="#o" transform="matrix(1,0,0,1,723,536) translate(45.025 116.2)"/><use xlink:href="#p" transform="matrix(1,0,0,1,723,536) translate(93.975 116.2)"/><use xlink:href="#q" transform="matrix(1,0,0,1,723,536) translate(113.975 116.2)"/><path d="M940 842c0-4.42 3.58-8 8-8h144c4.42 0 8 3.58 8 8v148c0 4.42-3.58 8-8 8H948c-4.42 0-8-3.58-8-8z" stroke="#333" stroke-width="2" fill="#ff8839"/><use xlink:href="#r" transform="matrix(1,0,0,1,957,851) translate(10.774999999999991 14.600000000000003)"/><use xlink:href="#s" transform="matrix(1,0,0,1,957,851) translate(3.5999999999999943 36.2)"/><use xlink:href="#t" transform="matrix(1,0,0,1,957,851) translate(77.45 36.2)"/><use xlink:href="#u" transform="matrix(1,0,0,1,957,851) translate(10.774999999999991 57.800000000000004)"/><use xlink:href="#v" transform="matrix(1,0,0,1,957,851) translate(11.574999999999996 79.40000000000002)"/><use xlink:href="#w" transform="matrix(1,0,0,1,957,851) translate(85.42500000000001 79.40000000000002)"/><use xlink:href="#u" transform="matrix(1,0,0,1,957,851) translate(10.774999999999991 101.00000000000001)"/><use xlink:href="#x" transform="matrix(1,0,0,1,957,851) translate(18.549999999999997 122.60000000000001)"/><use xlink:href="#y" transform="matrix(1,0,0,1,957,851) translate(78.45 122.60000000000001)"/><path d="M817 241.5v71.07" stroke="#333" fill="none"/><path d="M817.5 241.5h-1v-.5h1z" stroke="#333" stroke-width=".05" fill="#333"/><path d="M817 327.33l-4.64-14.26h9.28z" stroke="#333" fill="#333"/><path d="M1008.07 777l3.3.43 3.13 1.3 2.7 2.07 2.07 2.7 1.3 3.13.43 3.3v24.57h-2v-24.43l-.38-2.92-1.1-2.64-1.75-2.27-2.28-1.76-2.65-1.1-2.92-.37h-89.1v-2zm-189.7-8.15l1.1 2.64 1.76 2.27 2.28 1.76 2.65 1.1 2.92.37h54.22v2h-54.37l-3.3-.43-3.13-1.3-2.7-2.07-2.07-2.7-1.3-3.13-.43-3.3V721.8h2v44.13z" stroke="#7ab648" stroke-width=".05" fill="#7ab648"/><path d="M818 721.82h-2v-1.07l.53.1 1.47-.14z" fill="#7ab648"/><path d="M818.02 721.85H816v-1.13l.55.1 1.5-.14zm-1.5-1l-.5-.07v1.02H818v-1.07z" stroke="#7ab648" stroke-width=".05" fill="#7ab648"/><path d="M1020 829.76l-4.64-14.26h9.28z" fill="#7ab648"/><path d="M1020 833l-6-18.5h12zm-3.26-16.5l3.26 10.03 3.26-10.03z" stroke="#7ab648" stroke-width=".05" fill="#7ab648"/><use xlink:href="#z" transform="matrix(1,0,0,1,883.2868242463691,767.333332379659) translate(0 14.222222222222223)"/><path d="M751 821.93l.38 2.92 1.1 2.64 1.75 2.27 2.28 1.76 2.65 1.1 2.92.37h15.63l2.33.97.9 2.15-1.85.76-.58-1.38-1.2-.5h-15.37l-3.3-.43-3.13-1.3-2.7-2.07-2.07-2.7-1.3-3.13-.43-3.3v-38.9h2zm38.76-113.08l-.43 3.3-1.3 3.13-2.07 2.7-2.7 2.08-3.12 1.3-3.3.43h-14.77l-2.92.37-2.64 1.1-2.27 1.74-1.76 2.3-1.1 2.63-.37 2.92v29h-2v-29.13l.43-3.3 1.3-3.13 2.07-2.7 2.7-2.1 3.13-1.28 3.3-.43h14.77l2.9-.4 2.65-1.1 2.28-1.74 1.76-2.3 1.08-2.62.38-2.92v-8.93h2z" stroke="#c92d39" stroke-width=".05" fill="#c92d39"/><path d="M789.76 699.7v.1h-2v-1.93z" fill="#c92d39"/><path d="M789.8 699.7v.14h-2.06v-2.03zm-2 .1h1.94v-.08l-1.95-1.8z" stroke="#c92d39" stroke-width=".05" fill="#c92d39"/><path d="M780 851.76l-4.64-14.26h9.28z" fill="#c92d39"/><path d="M780 855l-6-18.5h12zm-3.26-16.5l3.26 10.03 3.26-10.03z" stroke="#c92d39" stroke-width=".05" fill="#c92d39"/><use xlink:href="#A" transform="matrix(1,0,0,1,736.6913580246913,761.8461694392316) translate(0 14.222222222222223)"/><path d="M700 864c0-4.42 3.58-8 8-8h144c4.42 0 8 3.58 8 8v104c0 4.42-3.58 8-8 8H708c-4.42 0-8-3.58-8-8z" stroke="#333" stroke-width="2" fill="#ff8839"/><use xlink:href="#B" transform="matrix(1,0,0,1,705,861) translate(22.77499999999999 47.8)"/><use xlink:href="#x" transform="matrix(1,0,0,1,705,861) translate(30.549999999999997 69.4)"/><use xlink:href="#y" transform="matrix(1,0,0,1,705,861) translate(90.45 69.4)"/><path d="M817 441.5v63.32" stroke="#333" fill="none"/><path d="M817.5 441.5h-1v-.5h1z" stroke="#333" stroke-width=".05" fill="#333"/><path d="M817 519.6l-4.64-14.28h9.28z" stroke="#333" fill="#333"/><path d="M453.15 78.58c0-4.42 3.58-8 8-8h836.75c4.4 0 8 3.58 8 8v25.15c0 4.42-3.6 8-8 8H461.15c-4.42 0-8-3.58-8-8z" stroke="#000" stroke-opacity="0" stroke-width="2" fill="#fff" fill-opacity="0"/><g><use xlink:href="#C" transform="matrix(1,0,0,1,457.14655278534315,74.57761197839864) translate(203.43098765432103 23.657777777777778)"/><use xlink:href="#D" transform="matrix(1,0,0,1,457.14655278534315,74.57761197839864) translate(284.8655555555556 23.657777777777778)"/><use xlink:href="#E" transform="matrix(1,0,0,1,457.14655278534315,74.57761197839864) translate(345.83222222222224 23.657777777777778)"/><use xlink:href="#F" transform="matrix(1,0,0,1,457.14655278534315,74.57761197839864) translate(367.6840740740741 23.657777777777778)"/><use xlink:href="#G" transform="matrix(1,0,0,1,457.14655278534315,74.57761197839864) translate(524.6532098765432 23.657777777777778)"/></g><path d="M709.44 110.4h347.9M709.47 110.4h-1.03M1057.3 110.4h1.03" stroke="#a9afb8" stroke-width="2" fill="none"/><path d="M453.15 119.73c0-4.42 3.58-8 8-8h837.7c4.42 0 8 3.58 8 8v2.85c0 4.42-3.58 8-8 8h-837.7c-4.42 0-8-3.58-8-8z" stroke="#000" stroke-opacity="0" stroke-width="2" fill="#fff" fill-opacity="0"/><g><use xlink:href="#H" transform="matrix(1,0,0,1,457.1465527853436,115.73283593529744) translate(315.22064814814814 14.917037037037037)"/><use xlink:href="#I" transform="matrix(1,0,0,1,457.1465527853436,115.73283593529744) translate(349.1699279835391 14.917037037037037)"/><use xlink:href="#J" transform="matrix(1,0,0,1,457.1465527853436,115.73283593529744) translate(418.81056584362136 14.917037037037037)"/><use xlink:href="#K" transform="matrix(1,0,0,1,457.1465527853436,115.73283593529744) translate(431.2600514403292 14.917037037037037)"/><use xlink:href="#L" transform="matrix(1,0,0,1,457.1465527853436,115.73283593529744) translate(477.9137551440329 14.917037037037037)"/><use xlink:href="#M" transform="matrix(1,0,0,1,457.1465527853436,115.73283593529744) translate(503.4075823045267 14.917037037037037)"/></g><path d="M723 1068c0-4.42 3.58-8 8-8h141c4.42 0 8 3.58 8 8v77.75c0 4.42-3.58 8-8 8H731c-4.42 0-8-3.58-8-8z" stroke="#333" stroke-width="2" fill="#ff8839"/><g><use xlink:href="#N" transform="matrix(1,0,0,1,723,1060) translate(60.025 29)"/><use xlink:href="#O" transform="matrix(1,0,0,1,723,1060) translate(31.574999999999996 50.6)"/><use xlink:href="#P" transform="matrix(1,0,0,1,723,1060) translate(70.525 50.6)"/><use xlink:href="#Q" transform="matrix(1,0,0,1,723,1060) translate(8.025000000000006 72.2)"/><use xlink:href="#R" transform="matrix(1,0,0,1,723,1060) translate(89.025 72.2)"/></g><path d="M1020 999.5v95.38c0 6.62-5.37 12-12 12H897.38" stroke="#333" fill="none"/><path d="M1020.5 999.5h-1v-.5h1z" stroke="#333" stroke-width=".05" fill="#333"/><path d="M882.62 1106.88l14.26-4.64v9.27z" stroke="#333" fill="#333"/><path d="M848 1217.6c17.67 0 32 18.98 32 42.4 0 23.42-14.33 42.4-32 42.4h-96c-17.67 0-32-18.98-32-42.4 0-23.42 14.33-42.4 32-42.4z" stroke="#333" stroke-width="2" fill="#ff8839"/><g><use xlink:href="#S" transform="matrix(1,0,0,1,730,1227.6) translate(43.074999999999996 14.500000000000002)"/><use xlink:href="#x" transform="matrix(1,0,0,1,730,1227.6) translate(2.049999999999997 36.1)"/><use xlink:href="#T" transform="matrix(1,0,0,1,730,1227.6) translate(61.95 36.1)"/><use xlink:href="#R" transform="matrix(1,0,0,1,730,1227.6) translate(40.025 57.7)"/></g><path d="M801.5 1155.25v30.42h.02v14.55" stroke="#333" fill="none"/><path d="M802 1155.26h-1v-.5h1z" stroke="#333" stroke-width=".05" fill="#333"/><path d="M801.52 1214.98l-4.64-14.26h9.27z" stroke="#333" fill="#333"/><path d="M780 977.5v29.75c0 5.94 4.8 10.75 10.75 10.75 5.94 0 10.75 4.8 10.75 10.75v13.87" stroke="#333" fill="none"/><path d="M780.5 977.5h-1v-.5h1z" stroke="#333" stroke-width=".05" fill="#333"/><path d="M801.5 1057.38l-4.64-14.26h9.28z" stroke="#333" fill="#333"/><defs><path fill="#fff" d="M194-120c59 52 2 134-86 124-53-6-90-18-98-63l31-7c8 30 29 43 70 43 46 0 84-17 71-62-32-43-135-20-137-98-3-89 178-90 191-16l-30 9c-8-48-127-53-127 5 0 53 81 35 115 65" id="U"/><path fill="#fff" d="M51-54c-9 22 5 41 31 30L79-1C43 14 10-4 19-52l22-115H19l5-23h22l19-43h21l-9 43h35l-4 23H73" id="V"/><path fill="#fff" d="M165-48c-4 18 1 34 23 27l-3 20c-29 8-62 0-52-35h-2C116-14 99 4 63 4 30 4 8-16 8-49c0-68 71-67 138-67 10-26 0-56-31-54-26 1-42 9-47 31l-32-5c8-67 160-71 144 15-5 28-9 54-15 81zM42-50c3 52 80 24 89-6 7-12 7-24 11-38-47 1-103-4-100 44" id="W"/><path fill="#fff" d="M66-151c12-25 30-51 66-40l-6 26C45-176 58-65 38 0H6l36-190h30" id="X"/><g id="a"><use transform="matrix(0.05,0,0,0.05,0,0)" xlink:href="#U"/><use transform="matrix(0.05,0,0,0.05,12,0)" xlink:href="#V"/><use transform="matrix(0.05,0,0,0.05,17,0)" xlink:href="#W"/><use transform="matrix(0.05,0,0,0.05,27,0)" xlink:href="#X"/><use transform="matrix(0.05,0,0,0.05,32.95,0)" xlink:href="#V"/></g><path fill="#fff" d="M14 0l48-248h34L48 0H14" id="Y"/><path fill="#fff" d="M173 0L80-213 41 0H11l48-248h37l94 214 40-214h30L212 0h-39" id="Z"/><path fill="#fff" d="M238-179c0 84-86 86-175 82L45 0H11l48-248c82 0 179-12 179 69zm-34 1c0-53-64-42-116-43l-19 98c63 0 135 9 135-55" id="aa"/><path fill="#fff" d="M62-99C39-31 123 0 170-40s38-139 58-208h34C234-144 253 4 115 4 49 4 18-43 31-112l26-136h34" id="ab"/><path fill="#fff" d="M151-220L108 0H75l42-220H32l6-28h203l-5 28h-85" id="ac"/><g id="b"><use transform="matrix(0.05,0,0,0.05,0,0)" xlink:href="#Y"/><use transform="matrix(0.05,0,0,0.05,5,0)" xlink:href="#Z"/><use transform="matrix(0.05,0,0,0.05,17.950000000000003,0)" xlink:href="#aa"/><use transform="matrix(0.05,0,0,0.05,29.950000000000003,0)" xlink:href="#ab"/><use transform="matrix(0.05,0,0,0.05,42.900000000000006,0)" xlink:href="#ac"/></g><path fill="#fff" d="M67-158c22-48 132-52 116 29L158 0h-32l25-140c3-38-53-32-70-12C52-117 51-52 38 0H6l36-190h30" id="ad"/><path fill="#fff" d="M67 3c-93-2-31-127-26-193h32L48-50c-3 39 53 32 70 12 30-34 30-101 43-152h32L157 0h-30c1-10 6-24 4-33-14 20-29 37-64 36" id="ae"/><path fill="#fff" d="M248-111c6-24 9-61-24-58-72 9-57 108-77 169h-31l26-142c3-37-50-30-64-10C52-115 50-51 37 0H6l36-190h30c-1 10-6 24-4 32 13-43 101-52 105 5 13-22 29-41 61-41 90 0 28 129 23 194h-31" id="af"/><path fill="#fff" d="M68-162c25-46 127-43 121 31C183-60 169 1 98 4 69 5 53-11 43-31L36 0H5l52-261h31zm88 36c2-27-9-43-34-43-55 0-70 51-70 103 0 29 15 45 43 46 52 0 58-58 61-106" id="ag"/><path fill="#fff" d="M111-194c62-3 86 47 72 106H45c-7 38 6 69 45 68 27-1 43-14 53-32l24 11C152-15 129 4 87 4 38 3 12-23 12-71c0-70 32-119 99-123zm44 81c14-66-71-72-95-28-4 8-8 17-11 28h106" id="ah"/><g id="c"><use transform="matrix(0.05,0,0,0.05,0,0)" xlink:href="#ad"/><use transform="matrix(0.05,0,0,0.05,10,0)" xlink:href="#ae"/><use transform="matrix(0.05,0,0,0.05,20,0)" xlink:href="#af"/><use transform="matrix(0.05,0,0,0.05,34.95,0)" xlink:href="#ag"/><use transform="matrix(0.05,0,0,0.05,44.95,0)" xlink:href="#ah"/><use transform="matrix(0.05,0,0,0.05,54.95,0)" xlink:href="#X"/></g><path fill="#fff" d="M30-147c31-64 166-65 159 27C183-49 158 1 86 4 9 8 1-88 30-147zM88-20c53 0 68-48 68-100 0-31-11-51-44-50-52 1-68 46-68 97 0 32 13 53 44 53" id="ai"/><path fill="#fff" d="M76-167L44 0H12l33-167H18l4-23h27c3-47 25-81 82-69l-4 24c-35-8-44 15-46 45h37l-5 23H76" id="aj"/><g id="d"><use transform="matrix(0.05,0,0,0.05,0,0)" xlink:href="#ai"/><use transform="matrix(0.05,0,0,0.05,10,0)" xlink:href="#aj"/></g><path fill="#fff" d="M67-158c15-20 31-36 64-36 94 0 33 127 27 194h-32l25-140c3-38-53-32-70-12C52-117 51-51 37 0H6l51-261h31" id="ak"/><path fill="#fff" d="M55-144c13 50 104 24 104 88C159 21 15 23 1-39l26-10c6 40 102 42 102-4-13-50-104-23-104-87 0-71 143-71 148-8l-29 4c-5-35-85-37-89 0" id="al"/><g id="e"><use transform="matrix(0.05,0,0,0.05,0,0)" xlink:href="#ak"/><use transform="matrix(0.05,0,0,0.05,10,0)" xlink:href="#ai"/><use transform="matrix(0.05,0,0,0.05,20,0)" xlink:href="#ae"/><use transform="matrix(0.05,0,0,0.05,30,0)" xlink:href="#X"/><use transform="matrix(0.05,0,0,0.05,35.95,0)" xlink:href="#al"/></g><path fill="#fff" d="M188 0h-37l-8-164L71 0H34L18-190h31l8 164 75-164h34l8 164 74-164h31" id="am"/><path fill="#fff" d="M127 0L80-88 50-66 37 0H6l51-261h31L57-100l99-90h39l-93 82L161 0h-34" id="an"/><path fill="#fff" d="M133-28C103 26-5 8 13-77c13-62 24-115 90-117 29-1 46 15 56 35l19-102h32L160 0h-30zM45-64c-2 27 10 43 35 43 54-1 69-50 69-103 0-29-15-46-42-46-53-1-58 58-62 106" id="ao"/><g id="f"><use transform="matrix(0.05,0,0,0.05,0,0)" xlink:href="#am"/><use transform="matrix(0.05,0,0,0.05,12.950000000000001,0)" xlink:href="#ai"/><use transform="matrix(0.05,0,0,0.05,22.950000000000003,0)" xlink:href="#X"/><use transform="matrix(0.05,0,0,0.05,28.900000000000002,0)" xlink:href="#an"/><use transform="matrix(0.05,0,0,0.05,37.900000000000006,0)" xlink:href="#ah"/><use transform="matrix(0.05,0,0,0.05,47.900000000000006,0)" xlink:href="#ao"/></g><path fill="#333" d="M33 0v-248h34V0H33" id="ap"/><path fill="#333" d="M135-143c-3-34-86-38-87 0 15 53 115 12 119 90S17 21 10-45l28-5c4 36 97 45 98 0-10-56-113-15-118-90-4-57 82-63 122-42 12 7 21 19 24 35" id="aq"/><g id="g"><use transform="matrix(0.05,0,0,0.05,0,0)" xlink:href="#ap"/><use transform="matrix(0.05,0,0,0.05,5,0)" xlink:href="#aq"/></g><path fill="#333" d="M117-194c89-4 53 116 60 194h-32v-121c0-31-8-49-39-48C34-167 62-67 57 0H25l-1-190h30c1 10-1 24 2 32 11-22 29-35 61-36" id="ar"/><path fill="#333" d="M84 4C-5 8 30-112 23-190h32v120c0 31 7 50 39 49 72-2 45-101 50-169h31l1 190h-30c-1-10 1-25-2-33-11 22-28 36-60 37" id="as"/><path fill="#333" d="M210-169c-67 3-38 105-44 169h-31v-121c0-29-5-50-35-48C34-165 62-65 56 0H25l-1-190h30c1 10-1 24 2 32 10-44 99-50 107 0 11-21 27-35 58-36 85-2 47 119 55 194h-31v-121c0-29-5-49-35-48" id="at"/><path fill="#333" d="M115-194c53 0 69 39 70 98 0 66-23 100-70 100C84 3 66-7 56-30L54 0H23l1-261h32v101c10-23 28-34 59-34zm-8 174c40 0 45-34 45-75 0-40-5-75-45-74-42 0-51 32-51 76 0 43 10 73 51 73" id="au"/><path fill="#333" d="M100-194c63 0 86 42 84 106H49c0 40 14 67 53 68 26 1 43-12 49-29l28 8c-11 28-37 45-77 45C44 4 14-33 15-96c1-61 26-98 85-98zm52 81c6-60-76-77-97-28-3 7-6 17-6 28h103" id="av"/><path fill="#333" d="M114-163C36-179 61-72 57 0H25l-1-190h30c1 12-1 29 2 39 6-27 23-49 58-41v29" id="aw"/><g id="h"><use transform="matrix(0.05,0,0,0.05,0,0)" xlink:href="#ar"/><use transform="matrix(0.05,0,0,0.05,10,0)" xlink:href="#as"/><use transform="matrix(0.05,0,0,0.05,20,0)" xlink:href="#at"/><use transform="matrix(0.05,0,0,0.05,34.95,0)" xlink:href="#au"/><use transform="matrix(0.05,0,0,0.05,44.95,0)" xlink:href="#av"/><use transform="matrix(0.05,0,0,0.05,54.95,0)" xlink:href="#aw"/></g><path fill="#333" d="M100-194c62-1 85 37 85 99 1 63-27 99-86 99S16-35 15-95c0-66 28-99 85-99zM99-20c44 1 53-31 53-75 0-43-8-75-51-75s-53 32-53 75 10 74 51 75" id="ax"/><path fill="#333" d="M101-234c-31-9-42 10-38 44h38v23H63V0H32v-167H5v-23h27c-7-52 17-82 69-68v24" id="ay"/><g id="i"><use transform="matrix(0.05,0,0,0.05,0,0)" xlink:href="#ax"/><use transform="matrix(0.05,0,0,0.05,10,0)" xlink:href="#ay"/></g><path fill="#333" d="M106-169C34-169 62-67 57 0H25v-261h32l-1 103c12-21 28-36 61-36 89 0 53 116 60 194h-32v-121c2-32-8-49-39-48" id="az"/><g id="j"><use transform="matrix(0.05,0,0,0.05,0,0)" xlink:href="#az"/><use transform="matrix(0.05,0,0,0.05,10,0)" xlink:href="#ax"/><use transform="matrix(0.05,0,0,0.05,20,0)" xlink:href="#as"/><use transform="matrix(0.05,0,0,0.05,30,0)" xlink:href="#aw"/><use transform="matrix(0.05,0,0,0.05,35.95,0)" xlink:href="#aq"/></g><path fill="#333" d="M206 0h-36l-40-164L89 0H53L-1-190h32L70-26l43-164h34l41 164 42-164h31" id="aA"/><path fill="#333" d="M143 0L79-87 56-68V0H24v-261h32v163l83-92h37l-77 82L181 0h-38" id="aB"/><path fill="#333" d="M85-194c31 0 48 13 60 33l-1-100h32l1 261h-30c-2-10 0-23-3-31C134-8 116 4 85 4 32 4 16-35 15-94c0-66 23-100 70-100zm9 24c-40 0-46 34-46 75 0 40 6 74 45 74 42 0 51-32 51-76 0-42-9-74-50-73" id="aC"/><g id="k"><use transform="matrix(0.05,0,0,0.05,0,0)" xlink:href="#aA"/><use transform="matrix(0.05,0,0,0.05,12.950000000000001,0)" xlink:href="#ax"/><use transform="matrix(0.05,0,0,0.05,22.950000000000003,0)" xlink:href="#aw"/><use transform="matrix(0.05,0,0,0.05,28.900000000000002,0)" xlink:href="#aB"/><use transform="matrix(0.05,0,0,0.05,37.900000000000006,0)" xlink:href="#av"/><use transform="matrix(0.05,0,0,0.05,47.900000000000006,0)" xlink:href="#aC"/></g><path fill="#333" d="M177-190C167-65 218 103 67 71c-23-6-38-20-44-43l32-5c15 47 100 32 89-28v-30C133-14 115 1 83 1 29 1 15-40 15-95c0-56 16-97 71-98 29-1 48 16 59 35 1-10 0-23 2-32h30zM94-22c36 0 50-32 50-73 0-42-14-75-50-75-39 0-46 34-46 75s6 73 46 73" id="aD"/><path fill="#333" d="M141-36C126-15 110 5 73 4 37 3 15-17 15-53c-1-64 63-63 125-63 3-35-9-54-41-54-24 1-41 7-42 31l-33-3c5-37 33-52 76-52 45 0 72 20 72 64v82c-1 20 7 32 28 27v20c-31 9-61-2-59-35zM48-53c0 20 12 33 32 33 41-3 63-29 60-74-43 2-92-5-92 41" id="aE"/><path fill="#333" d="M59-47c-2 24 18 29 38 22v24C64 9 27 4 27-40v-127H5v-23h24l9-43h21v43h35v23H59v120" id="aF"/><g id="l"><use transform="matrix(0.05,0,0,0.05,0,0)" xlink:href="#aD"/><use transform="matrix(0.05,0,0,0.05,10,0)" xlink:href="#aw"/><use transform="matrix(0.05,0,0,0.05,15.949999999999998,0)" xlink:href="#av"/><use transform="matrix(0.05,0,0,0.05,25.950000000000003,0)" xlink:href="#aE"/><use transform="matrix(0.05,0,0,0.05,35.95,0)" xlink:href="#aF"/><use transform="matrix(0.05,0,0,0.05,40.95,0)" xlink:href="#av"/><use transform="matrix(0.05,0,0,0.05,50.95,0)" xlink:href="#aw"/></g><g id="m"><use transform="matrix(0.05,0,0,0.05,0,0)" xlink:href="#aF"/><use transform="matrix(0.05,0,0,0.05,5,0)" xlink:href="#az"/><use transform="matrix(0.05,0,0,0.05,15,0)" xlink:href="#aE"/><use transform="matrix(0.05,0,0,0.05,25,0)" xlink:href="#ar"/></g><g id="n"><use transform="matrix(0.05,0,0,0.05,0,0)" xlink:href="#ax"/><use transform="matrix(0.05,0,0,0.05,10,0)" xlink:href="#aw"/></g><path fill="#333" d="M145-31C134-9 116 4 85 4 32 4 16-35 15-94c0-59 17-99 70-100 32-1 48 14 60 33 0-11-1-24 2-32h30l-1 268h-32zM93-21c41 0 51-33 51-76s-8-73-50-73c-40 0-46 35-46 75s5 74 45 74" id="aG"/><path fill="#333" d="M24 0v-261h32V0H24" id="aH"/><g id="o"><use transform="matrix(0.05,0,0,0.05,0,0)" xlink:href="#av"/><use transform="matrix(0.05,0,0,0.05,10,0)" xlink:href="#aG"/><use transform="matrix(0.05,0,0,0.05,20,0)" xlink:href="#as"/><use transform="matrix(0.05,0,0,0.05,30,0)" xlink:href="#aE"/><use transform="matrix(0.05,0,0,0.05,40,0)" xlink:href="#aH"/></g><g id="p"><use transform="matrix(0.05,0,0,0.05,0,0)" xlink:href="#aF"/><use transform="matrix(0.05,0,0,0.05,5,0)" xlink:href="#ax"/></g><path fill="#333" d="M155-56V0h-30v-56H8v-25l114-167h33v167h35v25h-35zm-30-156c-27 46-58 90-88 131h88v-131" id="aI"/><path fill="#333" d="M101-251c68 0 85 55 85 127S166 4 100 4C33 4 14-52 14-124c0-73 17-127 87-127zm-1 229c47 0 54-49 54-102s-4-102-53-102c-51 0-55 48-55 102 0 53 5 102 54 102" id="aJ"/><path fill="#333" d="M103-251c84 0 111 97 45 133-19 10-37 24-39 52H78c0-63 77-55 77-114 0-30-21-42-52-43-32 0-53 17-56 46l-32-2c7-45 34-72 88-72zM77 0v-35h34V0H77" id="aK"/><g id="q"><use transform="matrix(0.05,0,0,0.05,0,0)" xlink:href="#aI"/><use transform="matrix(0.05,0,0,0.05,10,0)" xlink:href="#aJ"/><use transform="matrix(0.05,0,0,0.05,20,0)" xlink:href="#aK"/></g><path fill="#fafafa" d="M212-179c-10-28-35-45-73-45-59 0-87 40-87 99 0 60 29 101 89 101 43 0 62-24 78-52l27 14C228-24 195 4 139 4 59 4 22-46 18-125c-6-104 99-153 187-111 19 9 31 26 39 46" id="aL"/><path fill="#fafafa" d="M205 0l-28-72H64L36 0H1l101-248h38L239 0h-34zm-38-99l-47-123c-12 45-31 82-46 123h93" id="aM"/><path fill="#fafafa" d="M30 0v-248h33v221h125V0H30" id="aN"/><path fill="#fafafa" d="M232-93c-1 65-40 97-104 97C67 4 28-28 28-90v-158h33c8 89-33 224 67 224 102 0 64-133 71-224h33v155" id="aO"/><path fill="#fafafa" d="M127-220V0H93v-220H8v-28h204v28h-85" id="aP"/><path fill="#fafafa" d="M30 0v-248h187v28H63v79h144v27H63v87h162V0H30" id="aQ"/><g id="r"><use transform="matrix(0.05,0,0,0.05,0,0)" xlink:href="#aL"/><use transform="matrix(0.05,0,0,0.05,12.950000000000001,0)" xlink:href="#aM"/><use transform="matrix(0.05,0,0,0.05,24.950000000000003,0)" xlink:href="#aN"/><use transform="matrix(0.05,0,0,0.05,34.95,0)" xlink:href="#aL"/><use transform="matrix(0.05,0,0,0.05,47.900000000000006,0)" xlink:href="#aO"/><use transform="matrix(0.05,0,0,0.05,60.85,0)" xlink:href="#aN"/><use transform="matrix(0.05,0,0,0.05,70.85000000000001,0)" xlink:href="#aM"/><use transform="matrix(0.05,0,0,0.05,81.50000000000001,0)" xlink:href="#aP"/><use transform="matrix(0.05,0,0,0.05,92.45000000000002,0)" xlink:href="#aQ"/></g><path fill="#fafafa" d="M100-194c62-1 85 37 85 99 1 63-27 99-86 99S16-35 15-95c0-66 28-99 85-99zM99-20c44 1 53-31 53-75 0-43-8-75-51-75s-53 32-53 75 10 74 51 75" id="aR"/><path fill="#fafafa" d="M108 0H70L1-190h34L89-25l56-165h34" id="aS"/><path fill="#fafafa" d="M100-194c63 0 86 42 84 106H49c0 40 14 67 53 68 26 1 43-12 49-29l28 8c-11 28-37 45-77 45C44 4 14-33 15-96c1-61 26-98 85-98zm52 81c6-60-76-77-97-28-3 7-6 17-6 28h103" id="aT"/><path fill="#fafafa" d="M114-163C36-179 61-72 57 0H25l-1-190h30c1 12-1 29 2 39 6-27 23-49 58-41v29" id="aU"/><path fill="#fafafa" d="M59-47c-2 24 18 29 38 22v24C64 9 27 4 27-40v-127H5v-23h24l9-43h21v43h35v23H59v120" id="aV"/><path fill="#fafafa" d="M24-231v-30h32v30H24zM24 0v-190h32V0H24" id="aW"/><path fill="#fafafa" d="M210-169c-67 3-38 105-44 169h-31v-121c0-29-5-50-35-48C34-165 62-65 56 0H25l-1-190h30c1 10-1 24 2 32 10-44 99-50 107 0 11-21 27-35 58-36 85-2 47 119 55 194h-31v-121c0-29-5-49-35-48" id="aX"/><g id="s"><use transform="matrix(0.05,0,0,0.05,0,0)" xlink:href="#aR"/><use transform="matrix(0.05,0,0,0.05,10,0)" xlink:href="#aS"/><use transform="matrix(0.05,0,0,0.05,19,0)" xlink:href="#aT"/><use transform="matrix(0.05,0,0,0.05,29,0)" xlink:href="#aU"/><use transform="matrix(0.05,0,0,0.05,34.95,0)" xlink:href="#aV"/><use transform="matrix(0.05,0,0,0.05,39.95,0)" xlink:href="#aW"/><use transform="matrix(0.05,0,0,0.05,43.900000000000006,0)" xlink:href="#aX"/><use transform="matrix(0.05,0,0,0.05,58.85,0)" xlink:href="#aT"/></g><path fill="#fafafa" d="M106-169C34-169 62-67 57 0H25v-261h32l-1 103c12-21 28-36 61-36 89 0 53 116 60 194h-32v-121c2-32-8-49-39-48" id="aY"/><path fill="#fafafa" d="M84 4C-5 8 30-112 23-190h32v120c0 31 7 50 39 49 72-2 45-101 50-169h31l1 190h-30c-1-10 1-25-2-33-11 22-28 36-60 37" id="aZ"/><path fill="#fafafa" d="M135-143c-3-34-86-38-87 0 15 53 115 12 119 90S17 21 10-45l28-5c4 36 97 45 98 0-10-56-113-15-118-90-4-57 82-63 122-42 12 7 21 19 24 35" id="ba"/><g id="t"><use transform="matrix(0.05,0,0,0.05,0,0)" xlink:href="#aY"/><use transform="matrix(0.05,0,0,0.05,10,0)" xlink:href="#aR"/><use transform="matrix(0.05,0,0,0.05,20,0)" xlink:href="#aZ"/><use transform="matrix(0.05,0,0,0.05,30,0)" xlink:href="#aU"/><use transform="matrix(0.05,0,0,0.05,35.95,0)" xlink:href="#ba"/></g><g id="u"><use transform="matrix(0.05,0,0,0.05,0,0)" xlink:href="#aL"/><use transform="matrix(0.05,0,0,0.05,12.950000000000001,0)" xlink:href="#aM"/><use transform="matrix(0.05,0,0,0.05,24.950000000000003,0)" xlink:href="#aN"/><use transform="matrix(0.05,0,0,0.05,34.95,0)" xlink:href="#aL"/><use transform="matrix(0.05,0,0,0.05,47.900000000000006,0)" xlink:href="#aO"/><use transform="matrix(0.05,0,0,0.05,60.85,0)" xlink:href="#aN"/><use transform="matrix(0.05,0,0,0.05,70.85000000000001,0)" xlink:href="#aM"/><use transform="matrix(0.05,0,0,0.05,81.50000000000001,0)" xlink:href="#aP"/><use transform="matrix(0.05,0,0,0.05,92.45000000000002,0)" xlink:href="#aQ"/></g><g id="v"><use transform="matrix(0.05,0,0,0.05,0,0)" xlink:href="#aR"/><use transform="matrix(0.05,0,0,0.05,10,0)" xlink:href="#aS"/><use transform="matrix(0.05,0,0,0.05,19,0)" xlink:href="#aT"/><use transform="matrix(0.05,0,0,0.05,29,0)" xlink:href="#aU"/><use transform="matrix(0.05,0,0,0.05,34.95,0)" xlink:href="#aV"/><use transform="matrix(0.05,0,0,0.05,39.95,0)" xlink:href="#aW"/><use transform="matrix(0.05,0,0,0.05,43.900000000000006,0)" xlink:href="#aX"/><use transform="matrix(0.05,0,0,0.05,58.85,0)" xlink:href="#aT"/></g><path fill="#fafafa" d="M115-194c55 1 70 41 70 98S169 2 115 4C84 4 66-9 55-30l1 105H24l-1-265h31l2 30c10-21 28-34 59-34zm-8 174c40 0 45-34 45-75s-6-73-45-74c-42 0-51 32-51 76 0 43 10 73 51 73" id="bb"/><path fill="#fafafa" d="M141-36C126-15 110 5 73 4 37 3 15-17 15-53c-1-64 63-63 125-63 3-35-9-54-41-54-24 1-41 7-42 31l-33-3c5-37 33-52 76-52 45 0 72 20 72 64v82c-1 20 7 32 28 27v20c-31 9-61-2-59-35zM48-53c0 20 12 33 32 33 41-3 63-29 60-74-43 2-92-5-92 41" id="bc"/><path fill="#fafafa" d="M179-190L93 31C79 59 56 82 12 73V49c39 6 53-20 64-50L1-190h34L92-34l54-156h33" id="bd"/><g id="w"><use transform="matrix(0.05,0,0,0.05,0,0)" xlink:href="#bb"/><use transform="matrix(0.05,0,0,0.05,10,0)" xlink:href="#bc"/><use transform="matrix(0.05,0,0,0.05,20,0)" xlink:href="#bd"/></g><path fill="#fafafa" d="M206 0h-36l-40-164L89 0H53L-1-190h32L70-26l43-164h34l41 164 42-164h31" id="be"/><path fill="#fafafa" d="M143 0L79-87 56-68V0H24v-261h32v163l83-92h37l-77 82L181 0h-38" id="bf"/><path fill="#fafafa" d="M24 0v-261h32V0H24" id="bg"/><g id="x"><use transform="matrix(0.05,0,0,0.05,0,0)" xlink:href="#be"/><use transform="matrix(0.05,0,0,0.05,12.950000000000001,0)" xlink:href="#aT"/><use transform="matrix(0.05,0,0,0.05,22.950000000000003,0)" xlink:href="#aT"/><use transform="matrix(0.05,0,0,0.05,32.95,0)" xlink:href="#bf"/><use transform="matrix(0.05,0,0,0.05,41.95,0)" xlink:href="#bg"/><use transform="matrix(0.05,0,0,0.05,45.900000000000006,0)" xlink:href="#bd"/></g><g id="y"><use transform="matrix(0.05,0,0,0.05,0,0)" xlink:href="#bb"/><use transform="matrix(0.05,0,0,0.05,10,0)" xlink:href="#bc"/><use transform="matrix(0.05,0,0,0.05,20,0)" xlink:href="#bd"/></g><path fill="#333" d="M146-102V0H94v-102L6-248h54l60 105 60-105h54" id="bh"/><path fill="#333" d="M24 0v-248h195v40H76v63h132v40H76v65h150V0H24" id="bi"/><path fill="#333" d="M169-182c-1-43-94-46-97-3 18 66 151 10 154 114 3 95-165 93-204 36-6-8-10-19-12-30l50-8c3 46 112 56 116 5-17-69-150-10-154-114-4-87 153-88 188-35 5 8 8 18 10 28" id="bj"/><g id="z"><use transform="matrix(0.04938271604938272,0,0,0.04938271604938272,0,0)" xlink:href="#bh"/><use transform="matrix(0.04938271604938272,0,0,0.04938271604938272,11.851851851851853,0)" xlink:href="#bi"/><use transform="matrix(0.04938271604938272,0,0,0.04938271604938272,23.703703703703706,0)" xlink:href="#bj"/></g><path fill="#333" d="M175 0L67-191c6 58 2 128 3 191H24v-248h59L193-55c-6-58-2-129-3-193h46V0h-61" id="bk"/><path fill="#333" d="M140-251c80 0 125 45 125 126S219 4 139 4C58 4 15-44 15-125s44-126 125-126zm-1 214c52 0 73-35 73-88 0-50-21-86-72-86-52 0-73 35-73 86s22 88 72 88" id="bl"/><g id="A"><use transform="matrix(0.04938271604938272,0,0,0.04938271604938272,0,0)" xlink:href="#bk"/><use transform="matrix(0.04938271604938272,0,0,0.04938271604938272,12.790123456790125,0)" xlink:href="#bl"/></g><g id="B"><use transform="matrix(0.05,0,0,0.05,0,0)" xlink:href="#aL"/><use transform="matrix(0.05,0,0,0.05,12.950000000000001,0)" xlink:href="#aM"/><use transform="matrix(0.05,0,0,0.05,24.950000000000003,0)" xlink:href="#aN"/><use transform="matrix(0.05,0,0,0.05,34.95,0)" xlink:href="#aL"/><use transform="matrix(0.05,0,0,0.05,47.900000000000006,0)" xlink:href="#aO"/><use transform="matrix(0.05,0,0,0.05,60.85,0)" xlink:href="#aN"/><use transform="matrix(0.05,0,0,0.05,70.85000000000001,0)" xlink:href="#aM"/><use transform="matrix(0.05,0,0,0.05,81.50000000000001,0)" xlink:href="#aP"/><use transform="matrix(0.05,0,0,0.05,92.45000000000002,0)" xlink:href="#aQ"/></g><path fill="#a9afb8" d="M24 0v-248h52V0H24" id="bm"/><path fill="#a9afb8" d="M136-208V0H84v-208H4v-40h212v40h-80" id="bn"/><path fill="#a9afb8" d="M14-72v-43h91v43H14" id="bo"/><path fill="#a9afb8" d="M23 0v-37h61v-169l-59 37v-38l62-41h46v211h57V0H23" id="bp"/><path fill="#a9afb8" d="M165-50V0h-47v-50H5v-38l105-160h55v161h33v37h-33zm-47-37l2-116L46-87h72" id="bq"/><path fill="#a9afb8" d="M101-251c68 0 84 54 84 127C185-50 166 4 99 4S15-52 14-124c-1-75 17-127 87-127zm-1 216c37-5 36-46 36-89s4-89-36-89c-39 0-36 45-36 89 0 43-3 85 36 89" id="br"/><g id="C"><use transform="matrix(0.0728395061728395,0,0,0.0728395061728395,0,0)" xlink:href="#bm"/><use transform="matrix(0.0728395061728395,0,0,0.0728395061728395,7.28395061728395,0)" xlink:href="#bn"/><use transform="matrix(0.0728395061728395,0,0,0.0728395061728395,21.77901234567901,0)" xlink:href="#bo"/><use transform="matrix(0.0728395061728395,0,0,0.0728395061728395,30.446913580246914,0)" xlink:href="#bp"/><use transform="matrix(0.0728395061728395,0,0,0.0728395061728395,45.01481481481481,0)" xlink:href="#bq"/><use transform="matrix(0.0728395061728395,0,0,0.0728395061728395,59.582716049382704,0)" xlink:href="#br"/></g><path fill="#a9afb8" d="M230 0l2-204L168 0h-37L68-204 70 0H24v-248h70l56 185 57-185h69V0h-46" id="bs"/><path fill="#a9afb8" d="M110-194c64 0 96 36 96 99 0 64-35 99-97 99-61 0-95-36-95-99 0-62 34-99 96-99zm-1 164c35 0 45-28 45-65 0-40-10-65-43-65-34 0-45 26-45 65 0 36 10 65 43 65" id="bt"/><path fill="#a9afb8" d="M88-194c31-1 46 15 58 34l-1-101h50l1 261h-48c-2-10 0-23-3-31C134-8 116 4 84 4 32 4 16-41 15-95c0-56 19-97 73-99zm17 164c33 0 40-30 41-66 1-37-9-64-41-64s-38 30-39 65c0 43 13 65 39 65" id="bu"/><g id="D"><use transform="matrix(0.0728395061728395,0,0,0.0728395061728395,0,0)" xlink:href="#bs"/><use transform="matrix(0.0728395061728395,0,0,0.0728395061728395,21.77901234567901,0)" xlink:href="#bt"/><use transform="matrix(0.0728395061728395,0,0,0.0728395061728395,37.73086419753086,0)" xlink:href="#bu"/></g><path fill="#a9afb8" d="M128-127c34 4 56 21 59 58 7 91-148 94-172 28-4-9-6-17-7-26l51-5c1 24 16 35 40 36 23 0 39-12 38-36-1-31-31-36-65-34v-40c32 2 59-3 59-33 0-20-13-33-34-33s-33 13-35 32l-50-3c6-44 37-68 86-68 50 0 83 20 83 66 0 35-22 52-53 58" id="bv"/><use transform="matrix(0.0728395061728395,0,0,0.0728395061728395,0,0)" xlink:href="#bv" id="E"/><path fill="#a9afb8" d="M199 0l-22-63H83L61 0H9l90-248h61L250 0h-51zm-33-102l-36-108c-10 38-24 72-36 108h72" id="bw"/><path fill="#a9afb8" d="M137-138c1-29-70-34-71-4 15 46 118 7 119 86 1 83-164 76-172 9l43-7c4 19 20 25 44 25 33 8 57-30 24-41C81-84 22-81 20-136c-2-80 154-74 161-7" id="bx"/><path fill="#a9afb8" d="M25-224v-37h50v37H25zM25 0v-190h50V0H25" id="by"/><path fill="#a9afb8" d="M195-6C206 82 75 100 31 46c-4-6-6-13-8-21l49-6c3 16 16 24 34 25 40 0 42-37 40-79-11 22-30 35-61 35-53 0-70-43-70-97 0-56 18-96 73-97 30 0 46 14 59 34l2-30h47zm-90-29c32 0 41-27 41-63 0-35-9-62-40-62-32 0-39 29-40 63 0 36 9 62 39 62" id="bz"/><path fill="#a9afb8" d="M135-194c87-1 58 113 63 194h-50c-7-57 23-157-34-157-59 0-34 97-39 157H25l-1-190h47c2 12-1 28 3 38 12-26 28-41 61-42" id="bA"/><path fill="#a9afb8" d="M220-157c-53 9-28 100-34 157h-49v-107c1-27-5-49-29-50C55-147 81-57 75 0H25l-1-190h47c2 12-1 28 3 38 10-53 101-56 108 0 13-22 24-43 59-42 82 1 51 116 57 194h-49v-107c-1-25-5-48-29-50" id="bB"/><path fill="#a9afb8" d="M185-48c-13 30-37 53-82 52C43 2 14-33 14-96s30-98 90-98c62 0 83 45 84 108H66c0 31 8 55 39 56 18 0 30-7 34-22zm-45-69c5-46-57-63-70-21-2 6-4 13-4 21h74" id="bC"/><path fill="#a9afb8" d="M115-3C79 11 28 4 28-45v-112H4v-33h27l15-45h31v45h36v33H77v99c-1 23 16 31 38 25v30" id="bD"/><g id="F"><use transform="matrix(0.0728395061728395,0,0,0.0728395061728395,0,0)" xlink:href="#bw"/><use transform="matrix(0.0728395061728395,0,0,0.0728395061728395,18.86543209876543,0)" xlink:href="#bx"/><use transform="matrix(0.0728395061728395,0,0,0.0728395061728395,33.43333333333333,0)" xlink:href="#bx"/><use transform="matrix(0.0728395061728395,0,0,0.0728395061728395,48.00123456790123,0)" xlink:href="#by"/><use transform="matrix(0.0728395061728395,0,0,0.0728395061728395,55.28518518518518,0)" xlink:href="#bz"/><use transform="matrix(0.0728395061728395,0,0,0.0728395061728395,71.23703703703703,0)" xlink:href="#bA"/><use transform="matrix(0.0728395061728395,0,0,0.0728395061728395,87.18888888888888,0)" xlink:href="#bB"/><use transform="matrix(0.0728395061728395,0,0,0.0728395061728395,110.49753086419753,0)" xlink:href="#bC"/><use transform="matrix(0.0728395061728395,0,0,0.0728395061728395,125.06543209876543,0)" xlink:href="#bA"/><use transform="matrix(0.0728395061728395,0,0,0.0728395061728395,141.01728395061727,0)" xlink:href="#bD"/></g><path fill="#a9afb8" d="M76-208v77h127v40H76V0H24v-248h183v40H76" id="bE"/><path fill="#a9afb8" d="M25 0v-261h50V0H25" id="bF"/><path fill="#a9afb8" d="M231 0h-52l-39-155L100 0H48L-1-190h46L77-45c9-52 24-97 36-145h53l37 145 32-145h46" id="bG"/><path fill="#a9afb8" d="M190-63c-7 42-38 67-86 67-59 0-84-38-90-98-12-110 154-137 174-36l-49 2c-2-19-15-32-35-32-30 0-35 28-38 64-6 74 65 87 74 30" id="bH"/><path fill="#a9afb8" d="M114-157C55-157 80-60 75 0H25v-261h50l-1 109c12-26 28-41 61-42 86-1 58 113 63 194h-50c-7-57 23-157-34-157" id="bI"/><path fill="#a9afb8" d="M133-34C117-15 103 5 69 4 32 3 11-16 11-54c-1-60 55-63 116-61 1-26-3-47-28-47-18 1-26 9-28 27l-52-2c7-38 36-58 82-57s74 22 75 68l1 82c-1 14 12 18 25 15v27c-30 8-71 5-69-32zm-48 3c29 0 43-24 42-57-32 0-66-3-65 30 0 17 8 27 23 27" id="bJ"/><path fill="#a9afb8" d="M135-150c-39-12-60 13-60 57V0H25l-1-190h47c2 13-1 29 3 40 6-28 27-53 61-41v41" id="bK"/><g id="G"><use transform="matrix(0.0728395061728395,0,0,0.0728395061728395,0,0)" xlink:href="#bE"/><use transform="matrix(0.0728395061728395,0,0,0.0728395061728395,15.95185185185185,0)" xlink:href="#bF"/><use transform="matrix(0.0728395061728395,0,0,0.0728395061728395,23.235802469135802,0)" xlink:href="#bt"/><use transform="matrix(0.0728395061728395,0,0,0.0728395061728395,39.187654320987654,0)" xlink:href="#bG"/><use transform="matrix(0.0728395061728395,0,0,0.0728395061728395,59.582716049382704,0)" xlink:href="#bH"/><use transform="matrix(0.0728395061728395,0,0,0.0728395061728395,74.15061728395061,0)" xlink:href="#bI"/><use transform="matrix(0.0728395061728395,0,0,0.0728395061728395,90.10246913580247,0)" xlink:href="#bJ"/><use transform="matrix(0.0728395061728395,0,0,0.0728395061728395,104.67037037037036,0)" xlink:href="#bK"/><use transform="matrix(0.0728395061728395,0,0,0.0728395061728395,114.8679012345679,0)" xlink:href="#bD"/></g><path fill="#a9afb8" d="M194 0L95-120 63-95V0H30v-248h33v124l119-124h40L117-140 236 0h-42" id="bL"/><path fill="#a9afb8" d="M179-190L93 31C79 59 56 82 12 73V49c39 6 53-20 64-50L1-190h34L92-34l54-156h33" id="bM"/><path fill="#a9afb8" d="M24 0v-261h32V0H24" id="bN"/><path fill="#a9afb8" d="M100-194c63 0 86 42 84 106H49c0 40 14 67 53 68 26 1 43-12 49-29l28 8c-11 28-37 45-77 45C44 4 14-33 15-96c1-61 26-98 85-98zm52 81c6-60-76-77-97-28-3 7-6 17-6 28h103" id="bO"/><g id="H"><use transform="matrix(0.04248971193415638,0,0,0.04248971193415638,0,0)" xlink:href="#bL"/><use transform="matrix(0.04248971193415638,0,0,0.04248971193415638,10.19753086419753,0)" xlink:href="#bM"/><use transform="matrix(0.04248971193415638,0,0,0.04248971193415638,17.845679012345677,0)" xlink:href="#bN"/><use transform="matrix(0.04248971193415638,0,0,0.04248971193415638,21.20236625514403,0)" xlink:href="#bO"/></g><path fill="#a9afb8" d="M233-177c-1 41-23 64-60 70L243 0h-38l-65-103H63V0H30v-248c88 3 205-21 203 71zM63-129c60-2 137 13 137-47 0-61-80-42-137-45v92" id="bP"/><path fill="#a9afb8" d="M85-194c31 0 48 13 60 33l-1-100h32l1 261h-30c-2-10 0-23-3-31C134-8 116 4 85 4 32 4 16-35 15-94c0-66 23-100 70-100zm9 24c-40 0-46 34-46 75 0 40 6 74 45 74 42 0 51-32 51-76 0-42-9-74-50-73" id="bQ"/><path fill="#a9afb8" d="M100-194c62-1 85 37 85 99 1 63-27 99-86 99S16-35 15-95c0-66 28-99 85-99zM99-20c44 1 53-31 53-75 0-43-8-75-51-75s-53 32-53 75 10 74 51 75" id="bR"/><path fill="#a9afb8" d="M96-169c-40 0-48 33-48 73s9 75 48 75c24 0 41-14 43-38l32 2c-6 37-31 61-74 61-59 0-76-41-82-99-10-93 101-131 147-64 4 7 5 14 7 22l-32 3c-4-21-16-35-41-35" id="bS"/><path fill="#a9afb8" d="M106-169C34-169 62-67 57 0H25v-261h32l-1 103c12-21 28-36 61-36 89 0 53 116 60 194h-32v-121c2-32-8-49-39-48" id="bT"/><g id="I"><use transform="matrix(0.04248971193415638,0,0,0.04248971193415638,0,0)" xlink:href="#bP"/><use transform="matrix(0.04248971193415638,0,0,0.04248971193415638,11.004835390946502,0)" xlink:href="#bO"/><use transform="matrix(0.04248971193415638,0,0,0.04248971193415638,19.502777777777776,0)" xlink:href="#bQ"/><use transform="matrix(0.04248971193415638,0,0,0.04248971193415638,28.000720164609046,0)" xlink:href="#bQ"/><use transform="matrix(0.04248971193415638,0,0,0.04248971193415638,36.498662551440326,0)" xlink:href="#bR"/><use transform="matrix(0.04248971193415638,0,0,0.04248971193415638,44.9966049382716,0)" xlink:href="#bS"/><use transform="matrix(0.04248971193415638,0,0,0.04248971193415638,52.64475308641975,0)" xlink:href="#bT"/></g><path fill="#a9afb8" d="M32 76v-337h29V76H32" id="bU"/><use transform="matrix(0.04248971193415638,0,0,0.04248971193415638,0,0)" xlink:href="#bU" id="J"/><path fill="#a9afb8" d="M240 0l2-218c-23 76-54 145-80 218h-23L58-218 59 0H30v-248h44l77 211c21-75 51-140 76-211h43V0h-30" id="bV"/><path fill="#a9afb8" d="M141-36C126-15 110 5 73 4 37 3 15-17 15-53c-1-64 63-63 125-63 3-35-9-54-41-54-24 1-41 7-42 31l-33-3c5-37 33-52 76-52 45 0 72 20 72 64v82c-1 20 7 32 28 27v20c-31 9-61-2-59-35zM48-53c0 20 12 33 32 33 41-3 63-29 60-74-43 2-92-5-92 41" id="bW"/><path fill="#a9afb8" d="M114-163C36-179 61-72 57 0H25l-1-190h30c1 12-1 29 2 39 6-27 23-49 58-41v29" id="bX"/><g id="K"><use transform="matrix(0.04248971193415638,0,0,0.04248971193415638,0,0)" xlink:href="#bV"/><use transform="matrix(0.04248971193415638,0,0,0.04248971193415638,12.704423868312757,0)" xlink:href="#bW"/><use transform="matrix(0.04248971193415638,0,0,0.04248971193415638,21.20236625514403,0)" xlink:href="#bX"/><use transform="matrix(0.04248971193415638,0,0,0.04248971193415638,26.25864197530864,0)" xlink:href="#bS"/><use transform="matrix(0.04248971193415638,0,0,0.04248971193415638,33.90679012345679,0)" xlink:href="#bT"/></g><path fill="#a9afb8" d="M27 0v-27h64v-190l-56 39v-29l58-41h29v221h61V0H27" id="bY"/><path fill="#a9afb8" d="M99-251c64 0 84 50 84 122C183-37 130 33 47-8c-14-7-20-23-25-40l30-5c6 39 69 39 84 7 9-19 16-44 16-74-10 22-31 35-62 35-49 0-73-33-73-83 0-54 28-83 82-83zm-1 141c31-1 51-18 51-49 0-36-14-67-51-67-34 0-49 23-49 58 0 34 15 58 49 58" id="bZ"/><path fill="#a9afb8" d="M68-38c1 34 0 65-14 84H32c9-13 17-26 17-46H33v-38h35" id="ca"/><g id="L"><use transform="matrix(0.04248971193415638,0,0,0.04248971193415638,0,0)" xlink:href="#bY"/><use transform="matrix(0.04248971193415638,0,0,0.04248971193415638,8.497942386831275,0)" xlink:href="#bZ"/><use transform="matrix(0.04248971193415638,0,0,0.04248971193415638,16.99588477366255,0)" xlink:href="#ca"/></g><path fill="#a9afb8" d="M101-251c82-7 93 87 43 132L82-64C71-53 59-42 53-27h129V0H18c2-99 128-94 128-182 0-28-16-43-45-43s-46 15-49 41l-32-3c6-41 34-60 81-64" id="cb"/><path fill="#a9afb8" d="M101-251c68 0 85 55 85 127S166 4 100 4C33 4 14-52 14-124c0-73 17-127 87-127zm-1 229c47 0 54-49 54-102s-4-102-53-102c-51 0-55 48-55 102 0 53 5 102 54 102" id="cc"/><g id="M"><use transform="matrix(0.04248971193415638,0,0,0.04248971193415638,0,0)" xlink:href="#cb"/><use transform="matrix(0.04248971193415638,0,0,0.04248971193415638,8.497942386831275,0)" xlink:href="#cc"/><use transform="matrix(0.04248971193415638,0,0,0.04248971193415638,16.99588477366255,0)" xlink:href="#cb"/><use transform="matrix(0.04248971193415638,0,0,0.04248971193415638,25.493827160493822,0)" xlink:href="#cb"/></g><path fill="#fafafa" d="M143 4C61 4 22-44 18-125c-5-107 100-154 193-111 17 8 29 25 37 43l-32 9c-13-25-37-40-76-40-61 0-88 39-88 99 0 61 29 100 91 101 35 0 62-11 79-27v-45h-74v-28h105v86C228-13 192 4 143 4" id="cd"/><g id="N"><use transform="matrix(0.05,0,0,0.05,0,0)" xlink:href="#cd"/><use transform="matrix(0.05,0,0,0.05,14,0)" xlink:href="#aQ"/><use transform="matrix(0.05,0,0,0.05,26,0)" xlink:href="#aP"/></g><g id="O"><use transform="matrix(0.05,0,0,0.05,0,0)" xlink:href="#aV"/><use transform="matrix(0.05,0,0,0.05,5,0)" xlink:href="#aR"/><use transform="matrix(0.05,0,0,0.05,15,0)" xlink:href="#aV"/><use transform="matrix(0.05,0,0,0.05,20,0)" xlink:href="#bc"/><use transform="matrix(0.05,0,0,0.05,30,0)" xlink:href="#bg"/></g><g id="P"><use transform="matrix(0.05,0,0,0.05,0,0)" xlink:href="#be"/><use transform="matrix(0.05,0,0,0.05,12.950000000000001,0)" xlink:href="#aT"/><use transform="matrix(0.05,0,0,0.05,22.950000000000003,0)" xlink:href="#aT"/><use transform="matrix(0.05,0,0,0.05,32.95,0)" xlink:href="#bf"/><use transform="matrix(0.05,0,0,0.05,41.95,0)" xlink:href="#bg"/><use transform="matrix(0.05,0,0,0.05,45.900000000000006,0)" xlink:href="#bd"/></g><path fill="#fafafa" d="M96-169c-40 0-48 33-48 73s9 75 48 75c24 0 41-14 43-38l32 2c-6 37-31 61-74 61-59 0-76-41-82-99-10-93 101-131 147-64 4 7 5 14 7 22l-32 3c-4-21-16-35-41-35" id="ce"/><g id="Q"><use transform="matrix(0.05,0,0,0.05,0,0)" xlink:href="#bb"/><use transform="matrix(0.05,0,0,0.05,10,0)" xlink:href="#bc"/><use transform="matrix(0.05,0,0,0.05,20,0)" xlink:href="#bd"/><use transform="matrix(0.05,0,0,0.05,29,0)" xlink:href="#ce"/><use transform="matrix(0.05,0,0,0.05,38,0)" xlink:href="#aY"/><use transform="matrix(0.05,0,0,0.05,48,0)" xlink:href="#aT"/><use transform="matrix(0.05,0,0,0.05,58,0)" xlink:href="#ce"/><use transform="matrix(0.05,0,0,0.05,67,0)" xlink:href="#bf"/></g><path fill="#fafafa" d="M117-194c89-4 53 116 60 194h-32v-121c0-31-8-49-39-48C34-167 62-67 57 0H25l-1-190h30c1 10-1 24 2 32 11-22 29-35 61-36" id="cf"/><g id="R"><use transform="matrix(0.05,0,0,0.05,0,0)" xlink:href="#bc"/><use transform="matrix(0.05,0,0,0.05,10,0)" xlink:href="#aX"/><use transform="matrix(0.05,0,0,0.05,24.950000000000003,0)" xlink:href="#aR"/><use transform="matrix(0.05,0,0,0.05,34.95,0)" xlink:href="#aZ"/><use transform="matrix(0.05,0,0,0.05,44.95,0)" xlink:href="#cf"/><use transform="matrix(0.05,0,0,0.05,54.95,0)" xlink:href="#aV"/></g><path fill="#fafafa" d="M30-248c87 1 191-15 191 75 0 78-77 80-158 76V0H30v-248zm33 125c57 0 124 11 124-50 0-59-68-47-124-48v98" id="cg"/><path fill="#fafafa" d="M233-177c-1 41-23 64-60 70L243 0h-38l-65-103H63V0H30v-248c88 3 205-21 203 71zM63-129c60-2 137 13 137-47 0-61-80-42-137-45v92" id="ch"/><path fill="#fafafa" d="M33 0v-248h34V0H33" id="ci"/><path fill="#fafafa" d="M190 0L58-211 59 0H30v-248h39L202-35l-2-213h31V0h-41" id="cj"/><g id="S"><use transform="matrix(0.05,0,0,0.05,0,0)" xlink:href="#cg"/><use transform="matrix(0.05,0,0,0.05,12,0)" xlink:href="#ch"/><use transform="matrix(0.05,0,0,0.05,24.950000000000003,0)" xlink:href="#ci"/><use transform="matrix(0.05,0,0,0.05,29.950000000000003,0)" xlink:href="#cj"/><use transform="matrix(0.05,0,0,0.05,42.900000000000006,0)" xlink:href="#aP"/></g><g id="T"><use transform="matrix(0.05,0,0,0.05,0,0)" xlink:href="#bb"/><use transform="matrix(0.05,0,0,0.05,10,0)" xlink:href="#bc"/><use transform="matrix(0.05,0,0,0.05,20,0)" xlink:href="#bd"/><use transform="matrix(0.05,0,0,0.05,29,0)" xlink:href="#ce"/><use transform="matrix(0.05,0,0,0.05,38,0)" xlink:href="#aY"/><use transform="matrix(0.05,0,0,0.05,48,0)" xlink:href="#aT"/><use transform="matrix(0.05,0,0,0.05,58,0)" xlink:href="#ce"/><use transform="matrix(0.05,0,0,0.05,67,0)" xlink:href="#bf"/></g></defs></g></svg>