<?xml version="1.0" standalone="no"?>
<!DOCTYPE svg PUBLIC "-//W3C//DTD SVG 20010904//EN"
 "http://www.w3.org/TR/2001/REC-SVG-20010904/DTD/svg10.dtd">
<svg version="1.0" xmlns="http://www.w3.org/2000/svg"
 width="3789.000000pt" height="3789.000000pt" viewBox="0 0 3789.000000 3789.000000"
 preserveAspectRatio="xMidYMid meet">
<metadata>
Created by potrace 1.14, written by Peter Selinger 2001-2017
</metadata>
<g transform="translate(0.000000,3789.000000) scale(0.100000,-0.100000)"
fill="#000000" stroke="none">
<path d="M17476 32674 c-8 -22 -8 -24 7 -24 8 0 22 9 32 20 18 20 17 20 -7 20
-14 0 -29 -7 -32 -16z"/>
<path d="M17285 32620 c3 -5 12 -7 20 -3 21 7 19 13 -6 13 -11 0 -18 -4 -14
-10z"/>
<path d="M17165 32571 l-30 -7 25 -8 c42 -14 47 -14 60 -6 14 9 5 31 -13 29
-7 -1 -25 -4 -42 -8z"/>
<path d="M21354 32495 c25 -19 31 -19 46 0 11 13 7 15 -26 15 -36 -1 -38 -2
-20 -15z"/>
<path d="M21460 32434 c0 -19 5 -24 25 -24 18 0 25 5 25 19 0 12 -9 20 -25 23
-21 4 -25 1 -25 -18z"/>
<path d="M16520 32427 c-19 -6 -41 -17 -48 -24 -7 -7 -22 -13 -33 -13 -11 0
-17 -4 -14 -10 10 -16 102 -12 119 6 13 12 24 57 14 53 -2 -1 -19 -6 -38 -12z"/>
<path d="M21638 32408 c9 -9 15 -9 24 0 9 9 7 12 -12 12 -19 0 -21 -3 -12 -12z"/>
<path d="M16217 32333 c-16 -3 -31 -11 -34 -19 -3 -8 -13 -14 -23 -14 -10 0
-23 -7 -30 -15 -7 -8 -18 -15 -25 -15 -7 0 -18 -7 -25 -15 -7 -8 -21 -15 -31
-15 -11 0 -19 -4 -19 -9 0 -4 19 -7 41 -5 56 4 259 104 210 104 -5 0 -15 2
-23 3 -7 2 -26 2 -41 0z"/>
<path d="M21900 32330 c-9 -6 -9 -13 -1 -29 12 -22 46 -27 71 -11 13 8 12 10
-2 10 -10 0 -18 6 -18 14 0 16 -33 27 -50 16z"/>
<path d="M22055 32240 c-8 -14 13 -22 31 -12 14 8 14 10 -5 15 -11 3 -23 1
-26 -3z"/>
<path d="M15986 32202 c6 -4 14 -14 17 -22 4 -10 6 -8 6 8 1 15 -5 22 -16 22
-11 0 -14 -3 -7 -8z"/>
<path d="M15906 32167 c3 -10 9 -15 12 -12 3 3 0 11 -7 18 -10 9 -11 8 -5 -6z"/>
<path d="M15755 32153 c-11 -3 -24 -11 -28 -19 -4 -8 -19 -14 -33 -14 -13 0
-27 -7 -30 -15 -4 -8 -14 -15 -24 -15 -11 0 -21 -4 -24 -9 -3 -5 -18 -12 -32
-15 -15 -4 -33 -14 -41 -21 -8 -8 -23 -15 -33 -15 -10 0 -20 -7 -24 -15 -3 -8
-15 -15 -26 -15 -11 0 -23 -7 -26 -15 -4 -8 -18 -15 -33 -15 -14 0 -35 -7 -45
-15 -11 -8 -28 -15 -38 -15 -10 0 -18 -4 -18 -8 0 -5 -24 -19 -52 -31 -29 -13
-60 -27 -68 -32 -8 -5 -23 -12 -32 -15 -10 -4 -18 -13 -18 -20 0 -8 -7 -14
-16 -14 -8 0 -22 -7 -30 -15 -9 -8 -24 -15 -33 -15 -10 0 -24 -7 -31 -15 -7
-8 -18 -15 -25 -15 -7 0 -18 -7 -25 -15 -7 -8 -20 -15 -30 -15 -10 0 -23 -7
-30 -15 -7 -8 -18 -15 -26 -15 -7 0 -28 -13 -46 -30 -18 -16 -38 -30 -45 -30
-8 0 -31 -11 -53 -25 -22 -14 -43 -25 -48 -25 -5 0 -17 -9 -27 -20 -10 -11
-22 -20 -28 -20 -5 0 -26 -13 -47 -30 -21 -16 -43 -30 -49 -30 -6 0 -11 -4
-11 -9 0 -5 -12 -12 -27 -16 -15 -3 -40 -20 -57 -36 -16 -16 -35 -29 -42 -29
-6 0 -17 -7 -24 -15 -7 -8 -21 -15 -30 -15 -20 0 -76 -27 -98 -47 -7 -7 -19
-13 -26 -13 -11 0 -112 -88 -194 -168 -19 -18 -41 -36 -51 -40 -50 -21 -185
-109 -241 -157 -35 -30 -67 -55 -72 -55 -4 0 -8 -5 -8 -12 0 -13 -68 -78 -81
-78 -5 0 -9 -5 -9 -11 0 -6 -16 -25 -36 -42 -20 -18 -66 -61 -103 -97 -36 -36
-81 -76 -99 -90 -18 -14 -49 -40 -70 -57 -20 -18 -40 -33 -44 -33 -5 0 -8 -7
-8 -15 0 -8 -16 -27 -36 -42 -19 -15 -66 -59 -102 -97 -161 -165 -203 -206
-212 -206 -6 0 -10 -5 -10 -11 0 -14 -153 -181 -305 -334 -71 -70 -120 -130
-138 -165 -55 -106 -72 -135 -97 -160 -29 -28 -240 -305 -240 -314 0 -19 -85
-178 -115 -213 -5 -7 -16 -19 -22 -27 -7 -8 -13 -19 -13 -24 0 -5 -9 -20 -20
-33 -46 -56 -100 -149 -100 -173 0 -6 -13 -37 -29 -69 -16 -32 -32 -74 -35
-93 -4 -19 -11 -34 -15 -34 -5 0 -12 -12 -16 -27 -3 -15 -27 -54 -52 -88 -25
-33 -52 -76 -60 -95 -7 -19 -18 -43 -23 -52 -6 -10 -10 -26 -10 -36 0 -10 -7
-27 -15 -38 -8 -10 -15 -27 -15 -37 0 -11 -6 -31 -13 -45 -8 -15 -21 -43 -29
-62 -8 -19 -29 -64 -46 -100 -18 -36 -32 -77 -32 -92 0 -34 -23 -104 -60 -183
-15 -33 -35 -94 -45 -135 -9 -41 -23 -86 -29 -100 -7 -14 -20 -40 -29 -58 -9
-19 -17 -39 -17 -45 0 -7 -6 -24 -14 -39 -8 -14 -17 -45 -21 -67 -4 -23 -11
-43 -16 -47 -5 -3 -9 -15 -9 -27 0 -12 -6 -34 -14 -48 -26 -50 -44 -124 -50
-203 -3 -43 -10 -84 -15 -90 -5 -6 -12 -27 -16 -46 -4 -19 -12 -41 -17 -47 -6
-7 -14 -61 -19 -120 -9 -123 -17 -167 -34 -203 -7 -14 -15 -47 -19 -75 -8 -54
-33 -131 -50 -154 -7 -9 -11 -90 -11 -227 0 -157 -3 -216 -12 -225 -8 -8 -13
-38 -13 -72 0 -56 -15 -104 -54 -172 -8 -14 -12 -301 -13 -1029 l-2 -1009 -38
-33 c-30 -27 -47 -34 -78 -34 -23 0 -45 -4 -51 -10 -5 -5 -29 -20 -54 -33 -25
-13 -57 -41 -71 -62 -56 -82 -58 -97 -61 -520 -3 -386 -2 -390 19 -432 27 -50
62 -79 115 -95 71 -21 92 -51 111 -154 20 -108 23 -448 7 -634 -6 -63 -15
-234 -20 -380 -10 -285 -21 -353 -69 -403 -12 -14 -26 -37 -31 -53 -8 -29 -8
-29 -9 -3 -1 14 -14 38 -31 54 -17 16 -42 54 -56 85 -14 30 -32 66 -40 80 -8
14 -24 43 -35 65 -10 22 -29 56 -41 75 -120 194 -158 254 -200 310 -27 36 -71
96 -98 134 -106 146 -352 360 -540 468 -91 53 -222 92 -349 103 -48 4 -85 13
-92 21 -17 20 -49 -1 -49 -32 0 -14 -6 -38 -14 -52 -86 -163 -106 -251 -106
-471 l0 -153 38 7 c20 4 42 10 47 14 21 15 72 -4 80 -29 4 -13 64 -49 178
-105 94 -47 177 -85 184 -85 18 0 135 -59 148 -75 5 -6 43 -31 84 -54 89 -52
201 -140 201 -158 0 -7 5 -13 10 -13 6 0 31 -28 56 -62 25 -35 52 -67 60 -71
10 -6 11 -13 4 -26 -7 -15 -4 -20 16 -30 21 -9 24 -14 14 -26 -32 -39 19 -41
134 -4 89 28 102 26 134 -25 73 -120 131 -227 131 -246 1 -8 8 -28 16 -44 8
-15 15 -33 15 -40 0 -6 6 -22 13 -36 13 -24 37 -91 71 -195 9 -27 16 -65 16
-84 0 -19 7 -70 16 -114 23 -114 16 -365 -11 -422 -20 -39 -28 -45 -115 -84
-126 -56 -201 -72 -241 -51 -12 7 -46 18 -76 25 -49 11 -53 11 -59 -7 -8 -27
3 -84 26 -133 19 -39 52 -182 66 -277 3 -28 23 -75 47 -115 36 -62 41 -77 47
-158 7 -94 21 -144 51 -183 12 -15 20 -19 25 -11 13 22 7 163 -10 203 -26 62
-21 107 14 136 24 19 33 37 39 75 7 46 12 47 23 6 2 -8 22 -19 44 -26 35 -10
40 -14 45 -50 8 -53 59 -245 71 -268 5 -10 12 -31 14 -45 3 -15 14 -36 25 -48
10 -11 19 -26 19 -32 0 -7 11 -40 25 -73 14 -33 23 -68 20 -78 -11 -35 50 -50
257 -61 275 -14 1319 -3 1476 16 36 5 41 8 33 23 -6 9 -29 24 -53 31 -114 36
-177 102 -193 200 -4 25 -14 59 -22 75 -39 79 -61 205 -67 377 l-3 108 35 6
c43 8 165 -1 190 -15 39 -21 251 -48 482 -61 91 -5 212 -14 270 -20 108 -11
395 -25 770 -38 118 -4 220 -11 227 -15 6 -4 456 -8 1000 -9 1011 -1 1320 7
1463 37 135 28 283 47 423 54 98 4 140 10 146 19 6 10 10 9 14 -7 3 -12 1 -21
-5 -21 -5 0 -28 -15 -51 -34 -23 -19 -69 -45 -102 -57 -66 -24 -90 -38 -150
-84 -47 -37 -117 -68 -200 -91 -119 -32 -160 -44 -180 -53 -44 -20 -351 -60
-475 -62 -106 -1 -297 -25 -348 -43 -31 -11 -119 -19 -315 -26 -150 -6 -279
-13 -287 -16 -99 -36 -406 -64 -675 -62 -89 1 -166 -2 -173 -6 -7 -4 -96 -9
-198 -12 -136 -3 -193 -8 -214 -19 -17 -9 -71 -17 -142 -20 -62 -3 -133 -10
-158 -15 -76 -15 -111 -19 -225 -26 -60 -4 -120 -10 -133 -15 -13 -5 -34 -9
-47 -9 -13 0 -31 -8 -41 -17 -9 -10 -33 -23 -53 -28 -20 -6 -37 -18 -39 -26
-2 -13 9 -18 55 -22 53 -6 1627 -22 1873 -20 58 1 470 4 915 8 771 6 963 12
1065 34 66 14 200 63 240 89 19 12 38 22 42 22 6 0 91 47 217 121 15 9 50 28
76 42 49 27 184 152 265 247 25 29 101 115 170 190 80 88 135 158 154 196 16
33 34 65 39 72 43 55 132 323 148 447 6 50 18 104 25 120 18 43 24 74 42 226
10 75 22 143 28 150 7 8 14 30 18 49 16 83 19 96 32 114 7 10 10 25 7 33 -3 9
12 33 39 61 24 26 50 65 58 87 7 22 27 58 44 80 18 22 45 60 60 85 16 25 50
71 75 103 53 66 131 109 241 133 156 34 563 0 683 -56 40 -19 64 -41 147 -135
9 -11 25 -35 34 -52 9 -18 22 -33 29 -33 17 0 96 -90 103 -117 4 -14 19 -27
40 -35 24 -8 34 -18 34 -33 0 -12 6 -27 12 -33 12 -12 27 -61 48 -160 5 -23
21 -70 34 -105 14 -34 28 -82 31 -107 4 -24 9 -49 13 -55 3 -5 12 -53 19 -105
18 -143 24 -174 36 -188 5 -7 11 -47 13 -90 5 -105 25 -190 70 -287 7 -16 22
-55 33 -85 12 -30 35 -73 53 -94 18 -22 56 -72 83 -111 76 -109 160 -219 180
-235 10 -8 47 -48 81 -88 109 -128 247 -234 384 -295 30 -13 91 -41 135 -61
45 -20 90 -36 101 -36 22 0 73 -22 114 -50 14 -9 58 -25 98 -35 68 -16 180
-18 1675 -18 881 -1 1646 2 1700 7 67 5 97 12 97 20 0 8 -13 13 -31 14 -17 0
-58 8 -92 16 -34 8 -78 18 -97 21 -19 3 -62 12 -95 20 -33 8 -76 15 -95 16
-19 1 -62 6 -95 11 -32 5 -91 11 -130 13 -219 11 -396 27 -440 40 -61 18 -212
41 -320 50 -44 4 -226 22 -405 41 -179 19 -374 39 -435 45 -60 6 -150 15 -200
20 -49 6 -133 14 -185 19 -52 5 -122 13 -155 19 -33 5 -100 13 -150 16 -230
14 -409 68 -490 147 -25 24 -118 79 -165 97 -81 31 -139 64 -144 83 -5 20 -1
20 87 14 51 -3 155 -11 232 -16 369 -25 436 -30 510 -38 44 -5 496 -7 1005 -6
809 3 936 5 1005 19 59 13 121 16 254 14 97 -2 230 2 296 9 66 6 217 16 335
22 118 5 224 12 235 15 11 3 117 12 235 20 118 8 269 24 335 35 147 25 245 35
278 26 18 -4 29 -17 38 -43 6 -21 16 -41 21 -44 5 -3 10 -36 12 -73 1 -36 7
-71 13 -77 15 -15 6 -102 -18 -171 -22 -65 -25 -111 -14 -215 4 -39 4 -80 0
-90 -4 -10 -9 -39 -9 -64 l-2 -47 153 -12 c83 -7 176 -10 205 -6 29 4 184 6
343 5 472 -5 589 2 655 36 38 20 48 40 55 110 3 36 12 67 23 79 18 20 39 62
40 79 0 5 8 14 18 21 12 9 19 37 25 104 8 87 31 155 60 173 6 4 13 24 14 45 1
22 9 53 18 71 12 23 17 58 17 121 0 74 3 91 16 96 36 14 50 -19 58 -139 5 -74
13 -95 35 -95 21 0 48 -49 56 -102 5 -35 25 -54 25 -25 0 7 5 18 12 25 19 19
38 99 48 199 7 75 16 107 49 175 36 76 45 113 42 176 l-1 23 -36 -27 c-67 -51
-148 -44 -341 28 -92 35 -104 50 -123 149 -25 129 2 497 39 543 5 6 12 27 16
46 4 19 11 40 15 45 4 6 11 30 15 55 16 99 141 353 211 427 35 36 55 40 111
19 21 -8 56 -17 78 -20 22 -3 49 -7 60 -8 16 -2 20 3 20 27 0 40 28 83 83 125
25 19 51 48 58 65 15 36 113 139 176 184 24 17 90 55 148 84 209 106 345 180
351 188 3 5 32 17 65 26 32 9 68 24 79 34 33 29 56 27 75 -6 21 -38 63 -46 80
-15 8 16 8 25 0 35 -7 8 -12 80 -14 192 -4 178 -16 271 -42 308 -8 11 -14 26
-14 34 0 18 -39 99 -51 107 -5 3 -9 21 -9 40 0 39 -17 45 -44 15 -15 -16 -23
-17 -59 -9 -67 15 -134 4 -249 -41 -246 -98 -520 -319 -705 -571 -193 -263
-267 -386 -396 -660 -29 -61 -72 -115 -92 -115 -45 0 -91 267 -99 575 -3 118
-11 280 -17 360 -24 321 4 632 62 670 57 37 142 115 167 152 l27 42 -3 375
c-4 386 -6 406 -47 491 -25 52 -134 130 -181 130 -25 0 -96 34 -113 53 -6 8
-11 363 -13 1027 l-4 1015 -27 78 c-28 81 -37 156 -57 482 -7 112 -14 164 -30
205 -33 85 -57 179 -65 250 -4 36 -11 70 -15 75 -4 6 -11 28 -15 50 -4 22 -11
45 -15 50 -5 6 -13 51 -19 100 -23 183 -55 349 -71 370 -4 6 -11 30 -15 55 -4
24 -11 51 -15 60 -5 8 -16 38 -25 65 -10 28 -23 64 -30 80 -7 17 -23 64 -35
105 -12 41 -25 84 -30 95 -5 11 -25 72 -46 135 -20 63 -41 123 -45 132 -5 10
-9 23 -9 29 0 15 -60 143 -117 249 -7 14 -13 32 -13 40 -1 14 -24 83 -48 143
-7 16 -12 34 -12 42 0 8 -4 16 -9 19 -4 3 -39 67 -77 141 -70 139 -75 148
-132 245 -52 87 -57 95 -63 100 -8 6 -103 178 -111 200 -3 8 -31 50 -62 93
-31 43 -56 81 -56 85 0 4 -13 23 -30 42 -16 19 -29 38 -30 42 0 14 -91 143
-105 151 -8 4 -15 13 -15 20 0 7 -11 24 -23 37 -13 14 -41 50 -62 80 -21 30
-42 57 -46 60 -5 3 -26 33 -47 65 -37 56 -82 106 -215 232 -30 29 -67 69 -82
89 -47 61 -576 588 -650 647 -77 61 -139 120 -230 218 -38 39 -81 74 -113 89
-29 14 -52 28 -52 32 0 5 -7 8 -15 8 -9 0 -18 6 -21 14 -3 8 -18 16 -33 19
-28 6 -181 147 -181 167 0 6 -6 10 -13 10 -8 0 -24 12 -38 26 -26 28 -89 64
-112 64 -12 0 -60 35 -99 73 -10 9 -23 17 -28 17 -6 0 -23 12 -39 28 -30 29
-85 62 -105 62 -7 0 -22 8 -33 18 -12 9 -38 31 -58 47 -21 17 -52 42 -69 56
-30 25 -128 79 -211 115 -22 9 -48 21 -57 25 -10 5 -25 9 -33 9 -16 0 -77 39
-83 53 -2 4 -10 7 -18 7 -13 0 -94 38 -104 49 -18 21 -141 71 -172 71 -27 0
-38 4 -38 15 0 10 -11 15 -35 15 -19 0 -35 -4 -35 -10 0 -14 44 -41 66 -39 38
4 53 -1 59 -21 4 -13 15 -20 31 -20 25 0 31 -18 15 -48 -17 -34 0 -47 64 -47
51 0 60 -3 63 -19 2 -10 8 -24 13 -30 5 -6 18 -23 30 -38 11 -16 27 -28 34
-28 8 0 19 -9 25 -21 6 -11 18 -19 27 -17 8 2 39 -21 67 -49 52 -52 53 -52
102 -47 44 5 50 4 59 -17 6 -13 21 -29 35 -36 32 -16 50 -41 50 -70 0 -14 6
-23 15 -23 8 0 15 -6 15 -14 0 -16 34 -31 49 -21 12 7 87 -65 96 -93 3 -12 14
-22 24 -22 10 0 24 -7 31 -15 7 -8 19 -15 26 -15 9 0 14 -11 14 -30 0 -20 5
-30 15 -30 8 0 15 -7 15 -15 0 -8 7 -15 15 -15 8 0 15 -4 15 -10 0 -5 9 -10
20 -10 16 0 20 -7 20 -35 0 -28 4 -35 20 -35 21 0 60 -33 60 -50 0 -5 7 -10
15 -10 10 0 15 -10 15 -30 0 -20 5 -30 15 -30 8 0 15 -7 15 -15 0 -8 5 -15 10
-15 12 0 56 -42 53 -51 -1 -4 3 -6 10 -6 40 1 47 -4 47 -33 0 -20 5 -30 15
-30 8 0 15 -4 15 -9 0 -10 38 -34 73 -47 9 -3 17 -12 17 -19 0 -7 7 -18 15
-25 8 -7 15 -21 15 -31 0 -11 7 -19 15 -19 15 0 19 -13 15 -62 -1 -20 3 -28
14 -28 9 0 16 -7 16 -15 0 -8 7 -15 15 -15 8 0 15 -7 15 -16 0 -11 8 -14 33
-12 25 2 32 -1 31 -14 -1 -10 3 -15 8 -12 13 8 48 -25 48 -45 0 -9 23 -38 51
-65 29 -28 48 -53 45 -61 -4 -11 2 -13 23 -9 30 6 50 -9 30 -22 -8 -5 -9 -3
-4 6 5 8 3 11 -5 8 -20 -6 -24 -28 -6 -28 9 0 16 -6 16 -14 0 -8 8 -13 18 -12
14 1 17 -7 16 -49 -1 -27 1 -41 5 -30 7 24 31 31 31 10 0 -8 7 -15 15 -15 11
0 15 -11 15 -40 0 -26 6 -42 17 -48 9 -5 14 -16 10 -24 -3 -8 3 -21 14 -29 10
-7 19 -19 19 -25 0 -7 7 -14 15 -18 9 -3 15 -19 15 -41 0 -22 6 -38 15 -41 8
-4 15 -11 15 -18 0 -6 10 -16 22 -21 12 -6 25 -18 30 -27 4 -10 12 -26 17 -35
4 -10 16 -20 25 -21 28 -6 56 -40 56 -67 0 -16 6 -25 16 -25 13 0 15 -11 12
-69 -3 -64 -2 -68 15 -60 16 9 17 4 15 -57 -2 -53 1 -69 15 -79 9 -7 17 -17
17 -24 0 -6 7 -11 15 -11 8 0 15 -7 15 -15 0 -10 10 -15 31 -15 l32 0 -5 -80
c-4 -62 -2 -80 9 -80 9 0 13 -14 13 -45 0 -33 4 -45 15 -45 8 0 15 -7 15 -16
0 -8 5 -12 10 -9 6 3 14 -5 19 -18 6 -14 15 -28 20 -32 6 -3 11 -19 11 -35 0
-18 11 -41 30 -62 17 -18 30 -40 30 -48 0 -9 14 -29 30 -45 17 -16 30 -37 30
-47 0 -10 5 -18 10 -18 6 0 23 -26 38 -57 15 -31 37 -67 50 -79 12 -13 22 -28
22 -34 0 -11 64 -92 106 -134 28 -29 124 -176 168 -260 20 -38 40 -74 45 -80
5 -6 33 -56 61 -111 29 -55 72 -136 95 -180 35 -66 119 -248 205 -440 18 -38
41 -128 56 -208 3 -20 10 -40 15 -43 5 -3 9 -21 9 -41 0 -20 4 -50 9 -67 5
-17 17 -60 26 -96 9 -36 21 -81 28 -100 21 -66 34 -275 27 -447 -1 -47 24
-257 33 -271 5 -7 11 -113 13 -235 3 -122 6 -232 8 -244 2 -13 0 -23 -4 -23
-4 0 -6 -16 -4 -35 2 -25 -2 -38 -11 -42 -10 -3 -15 -20 -15 -53 0 -27 -4 -52
-10 -55 -5 -3 -10 -17 -10 -31 0 -13 -4 -24 -9 -24 -6 0 -8 -9 -6 -20 2 -11 0
-20 -6 -20 -5 0 -9 -18 -9 -39 0 -22 -4 -42 -9 -45 -17 -11 -22 -144 -6 -181
17 -42 11 -152 -11 -202 -8 -17 -14 -58 -14 -91 0 -34 -4 -64 -10 -67 -5 -3
-10 -24 -10 -46 0 -21 -4 -39 -9 -39 -7 0 -19 -25 -25 -52 0 -3 -4 -10 -8 -14
-5 -4 -8 -71 -8 -149 0 -116 -3 -145 -15 -155 -9 -7 -13 -15 -11 -18 3 -2 1
-13 -4 -23 -7 -12 -7 -20 0 -24 7 -4 7 -12 0 -25 -5 -10 -10 -32 -10 -49 0
-17 -4 -31 -10 -31 -5 0 -10 -18 -10 -39 0 -22 -4 -51 -10 -65 -8 -22 -7 -26
9 -26 14 0 17 -6 13 -26 -2 -14 -10 -28 -16 -30 -7 -3 -10 -19 -8 -38 3 -28
-1 -37 -21 -50 -22 -15 -24 -20 -16 -63 9 -48 4 -68 -11 -43 -7 11 -11 8 -21
-12 -6 -15 -23 -29 -38 -33 -28 -7 -266 18 -376 40 -38 8 -119 17 -180 20 -61
4 -126 14 -145 22 l-35 15 30 10 c64 22 78 52 61 129 -18 76 -42 118 -141 249
-117 154 -199 229 -390 357 -136 91 -361 212 -444 238 -14 4 -65 27 -115 50
-50 23 -104 47 -121 53 -137 49 -379 86 -680 103 -208 13 -786 5 -920 -11 -44
-6 -123 -15 -175 -20 -210 -22 -439 -64 -564 -105 -189 -61 -336 -114 -391
-141 -97 -45 -267 -181 -310 -248 -33 -50 -85 -218 -85 -273 0 -79 58 -197
137 -280 55 -58 64 -63 157 -92 112 -35 146 -37 306 -15 63 8 153 15 199 16
63 0 100 6 150 24 64 24 84 30 201 59 145 36 169 44 225 73 91 46 201 78 365
106 41 8 131 28 200 45 120 30 171 43 235 56 152 32 515 44 750 25 123 -10
336 -54 415 -85 130 -51 255 -106 269 -119 52 -47 201 -111 341 -146 47 -12
97 -28 112 -36 14 -8 34 -15 45 -15 10 -1 0 -5 -22 -9 -23 -4 -88 -2 -155 6
-85 11 -269 14 -710 15 -554 0 -602 -1 -695 -19 -245 -49 -254 -49 -475 -22
-61 8 -136 10 -210 5 -128 -9 -145 -9 -245 0 -83 7 -149 -4 -153 -27 -4 -21
19 -28 115 -35 59 -4 87 -2 98 7 12 10 24 10 60 0 37 -10 43 -15 36 -29 -13
-21 -198 -49 -389 -57 -167 -8 -175 -4 -169 63 l5 43 -38 0 c-49 0 -118 -30
-150 -65 -62 -67 -243 -108 -310 -70 -14 8 -19 14 -12 15 15 0 52 58 52 82 0
33 -69 41 -204 24 -66 -9 -130 -18 -142 -21 -11 -2 -58 -42 -105 -88 -98 -97
-113 -107 -170 -107 -43 0 -74 -8 -309 -81 -69 -22 -142 -39 -162 -39 -20 0
-38 -5 -40 -11 -2 -6 -26 -9 -58 -7 l-55 3 22 22 c13 13 40 24 70 28 85 12
117 24 152 56 19 17 44 35 55 39 16 7 8 9 -30 9 -56 1 -150 -23 -175 -45 -8
-8 -21 -14 -27 -14 -7 0 -12 -4 -12 -10 0 -5 -11 -12 -25 -16 -14 -3 -25 -10
-25 -15 0 -4 -16 -11 -35 -15 -19 -3 -52 -18 -73 -33 -20 -15 -74 -40 -119
-56 -45 -15 -99 -38 -120 -49 -41 -23 -83 -86 -83 -126 0 -14 -16 -50 -35 -80
-19 -30 -35 -57 -35 -60 0 -3 -9 -11 -20 -18 -17 -10 -28 -9 -69 9 -40 17 -62
20 -113 15 -35 -3 -182 -10 -328 -15 -243 -9 -271 -12 -340 -35 -95 -32 -148
-32 -241 0 -67 23 -97 27 -304 36 -321 14 -372 14 -437 -1 -79 -19 -99 -11
-142 55 -32 48 -37 61 -31 93 5 30 2 40 -17 58 -50 47 -166 80 -183 53 -3 -5
-16 -10 -28 -10 -30 1 -122 33 -142 50 -16 13 -14 15 16 26 19 7 44 13 57 13
34 1 28 35 -14 69 -40 33 -94 52 -148 52 l-37 0 7 -46 c5 -34 3 -48 -7 -55
-29 -18 -110 -6 -187 28 -68 30 -140 51 -212 62 -41 7 -113 24 -160 39 -74 23
-93 34 -143 83 -64 63 -89 67 -106 18 -5 -16 -21 -33 -35 -39 -28 -10 -180 -3
-264 14 -64 12 -77 36 -27 46 17 4 42 14 56 23 16 11 56 19 109 23 101 7 133
19 75 29 -22 3 -74 13 -115 22 -179 37 -224 28 -199 -42 17 -47 5 -58 -70 -63
-48 -3 -64 -1 -87 17 -27 20 -44 21 -294 25 -146 2 -281 7 -300 10 -92 18 -89
14 -37 47 31 19 45 34 41 44 -13 32 -133 44 -264 25 -47 -7 -94 -5 -175 6 -86
11 -157 13 -330 7 -221 -8 -1031 7 -1333 25 -85 5 -172 6 -195 1 -23 -4 -103
-10 -177 -13 -74 -3 -116 -2 -93 3 23 4 47 12 55 18 7 5 40 18 73 28 184 54
289 98 335 140 14 13 42 32 63 43 54 28 400 138 477 151 281 48 697 40 910
-16 52 -14 154 -36 225 -50 72 -13 162 -31 200 -39 39 -8 93 -19 122 -25 54
-9 167 -47 238 -79 58 -26 156 -58 228 -75 82 -18 123 -30 177 -51 25 -9 88
-20 140 -25 52 -4 142 -15 200 -24 142 -22 175 -21 283 9 50 14 111 30 135 36
52 13 110 62 129 110 8 19 25 49 38 65 49 65 58 174 25 294 -39 139 -92 208
-255 331 -84 64 -143 91 -269 124 -52 14 -137 41 -188 60 -126 47 -246 76
-373 91 -27 3 -95 13 -150 20 -361 51 -341 50 -800 49 -508 -1 -578 -7 -935
-81 -107 -22 -183 -48 -315 -108 -16 -8 -64 -28 -105 -45 -116 -48 -320 -158
-370 -199 -25 -20 -71 -54 -104 -76 -51 -35 -87 -65 -217 -186 -41 -38 -164
-209 -193 -268 -16 -33 -29 -80 -33 -116 -5 -58 -4 -63 22 -83 16 -13 43 -23
64 -23 30 -1 27 -3 -19 -10 -30 -5 -93 -18 -140 -29 -47 -10 -148 -26 -225
-35 -77 -9 -158 -20 -180 -25 -22 -5 -75 -10 -117 -10 -42 0 -80 -4 -83 -10
-3 -5 -35 -10 -71 -10 -72 0 -85 16 -36 47 15 9 29 18 31 19 2 2 -6 18 -18 37
-22 35 -28 62 -12 53 16 -11 20 58 3 76 -16 19 -11 100 8 123 7 9 6 16 -5 25
-11 9 -15 35 -15 106 0 51 -4 96 -10 99 -5 3 -10 17 -10 31 0 13 5 24 10 24
16 0 12 86 -5 100 -9 8 -15 30 -15 60 0 30 -6 52 -15 60 -12 10 -15 37 -15
120 0 83 -3 110 -15 120 -11 9 -15 32 -15 79 0 37 -5 72 -10 77 -6 6 -13 50
-17 97 -3 48 -10 87 -14 87 -5 0 -9 25 -9 55 0 40 -4 56 -17 64 -14 7 -15 12
-5 24 7 8 9 18 4 21 -5 3 -12 69 -16 147 -3 78 -10 147 -13 153 -13 21 -15 41
-18 291 -2 147 1 255 6 261 5 7 12 133 15 280 5 241 8 278 29 354 38 134 52
194 75 300 6 30 17 71 25 90 8 19 23 78 35 130 12 52 34 126 50 165 15 38 54
138 86 220 65 166 163 366 229 465 24 36 72 121 108 189 56 108 120 197 209
292 9 10 26 36 37 58 11 21 25 41 30 43 9 3 30 36 70 108 11 19 41 58 68 85
26 28 48 57 48 65 0 8 7 14 16 14 9 -1 16 4 16 10 -1 52 16 78 26 39 2 -10 3
-7 2 6 -2 16 3 25 16 28 11 3 19 10 19 15 0 5 7 16 15 24 20 21 19 35 -2 27
-17 -7 -17 -6 0 11 9 9 17 27 17 38 0 14 5 18 15 14 9 -3 15 0 15 9 0 8 7 15
15 15 10 0 15 10 15 30 0 20 5 30 15 30 10 0 15 10 15 30 0 20 5 30 15 30 11
0 15 17 17 68 3 61 4 65 16 42 l12 -25 -2 30 c-3 77 2 107 17 101 9 -3 15 0
15 9 0 8 7 15 15 15 19 0 20 36 2 43 -8 3 -14 -1 -14 -9 0 -7 4 -11 9 -8 4 3
8 0 8 -6 0 -7 -6 -10 -12 -8 -8 3 -14 27 -16 61 -2 45 0 57 12 57 8 0 16 -8
19 -17 2 -10 1 4 -1 30 -4 43 -3 48 14 45 16 -2 18 2 16 30 -3 28 -1 33 15 30
12 -2 17 2 15 15 -2 10 3 17 13 17 8 0 16 7 17 15 0 8 1 21 2 28 1 6 7 17 14
22 7 6 14 20 14 31 1 12 9 21 18 20 9 -1 14 6 12 17 -2 10 3 17 13 17 10 0 15
10 15 30 0 20 5 30 15 30 11 0 15 12 15 45 0 33 4 45 15 45 10 0 15 10 15 30
0 20 5 30 15 30 8 0 15 8 16 18 0 10 3 12 6 5 2 -7 9 -13 14 -13 6 0 7 5 4 10
-3 6 1 10 9 10 18 0 35 29 29 48 -3 9 2 12 13 10 16 -2 18 3 16 31 -3 29 -1
33 15 29 16 -4 18 -1 15 23 -3 24 0 30 22 39 14 5 26 12 26 15 0 4 -5 3 -12
-1 -6 -4 -8 -3 -4 4 3 6 20 9 36 7 21 -3 30 0 30 10 0 8 7 15 16 15 11 0 14 6
9 20 -5 14 -2 20 9 20 9 0 16 7 16 15 0 7 8 18 17 24 10 5 18 18 18 28 0 10 7
18 16 17 9 -1 16 6 15 15 0 9 6 15 15 15 9 -1 16 6 15 15 0 9 6 15 15 15 9 -1
16 6 15 15 0 9 6 15 15 15 9 -1 16 4 16 10 -1 34 4 56 12 56 5 0 12 -10 14
-22 3 -17 5 -14 6 10 1 21 6 32 16 32 8 0 15 7 15 15 0 8 7 15 15 15 8 0 15 7
15 15 0 13 26 21 53 16 5 -1 6 3 3 8 -6 10 18 34 26 26 3 -3 5 9 4 27 -1 26 3
33 17 32 9 -1 17 4 17 12 0 8 7 14 15 14 8 0 15 7 15 15 0 8 7 15 15 15 8 0
15 7 15 15 0 8 7 15 16 15 13 0 15 7 11 29 -5 23 -2 30 13 34 14 3 20 14 20
31 0 16 6 26 15 26 8 0 15 7 15 15 0 8 6 15 14 15 8 0 16 12 18 27 2 19 10 29
30 34 15 4 35 15 44 24 9 9 23 14 30 11 8 -3 14 1 14 9 0 10 10 15 31 15 26 0
29 3 24 21 -6 18 -4 20 15 14 16 -5 20 -4 15 5 -9 15 23 50 47 50 11 0 18 7
18 19 0 10 6 24 14 30 7 6 11 22 9 35 -4 20 0 25 18 28 16 2 24 9 23 21 -1 12
6 17 26 17 15 0 35 9 45 20 10 12 25 18 32 16 9 -4 13 1 11 12 -3 15 5 17 57
14 61 -3 61 -3 98 40 45 52 44 51 85 87 17 16 32 36 32 44 0 19 29 30 44 17
32 -26 106 19 106 65 0 29 22 49 38 33 17 -17 44 9 32 32 -10 19 -4 30 18 30
9 0 12 -3 9 -7 -11 -10 13 -33 34 -33 23 0 25 23 4 40 -8 7 -15 17 -15 22 0
17 53 58 75 58 13 0 28 7 35 15 7 8 18 15 24 14 6 -1 27 4 46 11 43 17 43 17
52 -12 6 -21 6 -21 7 5 1 24 4 27 22 22 24 -8 39 8 39 41 0 15 8 24 26 28 14
4 38 15 53 25 36 26 143 49 149 33 2 -7 13 -11 25 -11 19 1 19 2 4 6 -15 4
-18 11 -13 36 6 30 4 32 -27 33 -17 1 -41 -1 -52 -3z m-978 -630 c-3 -10 -5
-4 -5 12 0 17 2 24 5 18 2 -7 2 -21 0 -30z m-722 -753 c-16 -16 -31 -28 -33
-25 -6 6 40 55 52 55 6 0 -3 -13 -19 -30z m10249 -252 c-4 -6 -3 -8 3 -5 9 5
73 -53 73 -67 0 -3 -7 -6 -15 -6 -8 0 -15 7 -15 15 0 8 -7 15 -15 15 -8 0 -15
7 -15 15 0 8 -7 15 -15 15 -8 0 -15 9 -15 21 0 11 5 17 10 14 6 -4 7 -11 4
-17z m-10525 -50 c-2 -2 -17 -14 -33 -28 -27 -23 -28 -23 -17 -3 10 20 25 30
45 32 5 1 7 0 5 -1z m-71 -70 c-4 -18 -20 -35 -35 -35 -7 0 -3 10 10 23 25 27
28 28 25 12z m-178 -238 c0 -5 -4 -10 -10 -10 -5 0 -10 5 -10 10 0 6 5 10 10
10 6 0 10 -4 10 -10z m-412 -819 c3 -8 -1 -12 -9 -9 -7 2 -15 10 -17 17 -3 8
1 12 9 9 7 -2 15 -10 17 -17z m12055 -202 c-5 -5 -6 11 -3 34 4 41 5 41 8 8 2
-18 0 -37 -5 -42z m-3525 -5625 c39 -5 52 -11 52 -23 0 -13 -23 -22 -99 -40
-54 -12 -109 -21 -122 -19 -30 4 -49 49 -29 72 14 17 100 21 198 10z m-6488
-483 l105 -7 -78 -8 c-43 -5 -225 -5 -405 0 l-327 9 195 5 c287 8 393 8 510 1z
m-1070 -16 c-96 -6 -182 -14 -190 -18 -9 -4 -101 -6 -205 -5 -170 3 -181 4
-100 11 50 4 128 11 175 15 47 5 177 9 290 9 l205 0 -175 -12z m243 8 c-13 -2
-33 -2 -45 0 -13 2 -3 4 22 4 25 0 35 -2 23 -4z m85 0 c-10 -2 -28 -2 -40 0
-13 2 -5 4 17 4 22 1 32 -1 23 -4z m8790 0 c-32 -2 -84 -2 -115 0 -32 2 -6 3
57 3 63 0 89 -1 58 -3z m1429 -27 c3 -3 -81 -5 -188 -4 -120 1 -175 4 -144 8
60 8 323 5 332 -4z m-11522 -6 c-28 -12 -73 -12 -80 0 -4 6 14 10 47 9 39 0
48 -3 33 -9z m11970 0 c6 -9 -193 -3 -204 6 -2 2 41 4 97 4 57 0 104 -4 107
-10z m98 -27 c-7 -2 -21 -2 -30 0 -10 3 -4 5 12 5 17 0 24 -2 18 -5z m160 0
c-23 -2 -64 -2 -90 0 -26 2 -7 3 42 3 50 0 71 -1 48 -3z m-8538 -3523 c9 -29
-2 -55 -30 -68 -21 -10 -26 -8 -35 9 -11 20 -8 31 18 62 20 23 39 22 47 -3z
m4615 -38 c0 -40 -10 -45 -31 -18 -26 33 -24 46 6 46 21 0 25 -5 25 -28z
m-4989 -28 c30 -5 36 -10 32 -25 -3 -10 -10 -19 -15 -19 -5 0 -40 -13 -78 -30
-105 -46 -210 -36 -210 20 0 40 162 72 271 54z m5454 -18 c55 -10 102 -19 104
-22 14 -13 -22 -40 -67 -53 -49 -13 -55 -13 -128 14 -85 31 -126 61 -103 76
17 10 66 7 194 -15z"/>
<path d="M22306 32152 c-11 -10 27 -42 49 -42 22 0 65 -33 65 -51 0 -6 4 -7
10 -4 5 3 32 -4 60 -17 45 -21 53 -30 53 -63 0 -5 15 -11 34 -12 33 -3 33 -3
13 17 -11 11 -22 20 -25 20 -9 0 -45 40 -45 50 0 6 -7 10 -15 10 -8 0 -15 7
-15 15 0 9 -9 15 -24 15 -13 0 -26 7 -30 15 -3 8 -12 15 -21 15 -8 0 -15 7
-15 15 0 10 -10 15 -27 16 -16 0 -36 2 -45 4 -9 2 -19 0 -22 -3z"/>
<path d="M22655 31960 c-3 -5 -1 -10 4 -10 6 0 11 5 11 10 0 6 -2 10 -4 10 -3
0 -8 -4 -11 -10z"/>
<path d="M15458 31903 c12 -2 32 -2 45 0 12 2 2 4 -23 4 -25 0 -35 -2 -22 -4z"/>
<path d="M15370 31880 c0 -6 7 -10 15 -10 8 0 15 2 15 4 0 2 -7 6 -15 10 -8 3
-15 1 -15 -4z"/>
<path d="M14750 31476 c0 -2 8 -10 18 -17 15 -13 16 -12 3 4 -13 16 -21 21
-21 13z"/>
<path d="M13466 30087 c3 -10 9 -15 12 -12 3 3 0 11 -7 18 -10 9 -11 8 -5 -6z"/>
<path d="M24677 30056 c-4 -10 -1 -13 8 -9 8 3 12 9 9 14 -7 12 -11 11 -17 -5z"/>
<path d="M13437 30029 c7 -7 15 -10 18 -7 3 3 -2 9 -12 12 -14 6 -15 5 -6 -5z"/>
<path d="M25067 29276 c-4 -10 -1 -13 8 -9 8 3 12 9 9 14 -7 12 -11 11 -17 -5z"/>
<path d="M25095 29249 c-10 -15 3 -25 16 -12 7 7 7 13 1 17 -6 3 -14 1 -17 -5z"/>
<path d="M25120 29210 c0 -5 5 -10 11 -10 5 0 7 5 4 10 -3 6 -8 10 -11 10 -2
0 -4 -4 -4 -10z"/>
<path d="M15887 23663 l-28 -4 23 -18 c58 -45 118 -52 118 -13 0 38 -30 47
-113 35z"/>
<path d="M29082 19945 c0 -16 2 -22 5 -12 2 9 2 23 0 30 -3 6 -5 -1 -5 -18z"/>
<path d="M28108 19444 c-22 -25 -33 -87 -19 -111 10 -17 10 -17 11 0 0 10 7
28 16 42 8 13 14 38 12 55 -3 31 -4 32 -20 14z"/>
<path d="M10030 19404 c0 -38 4 -52 20 -62 19 -11 20 -10 20 26 0 25 -7 48
-20 62 l-20 23 0 -49z"/>
<path d="M28652 18823 c-26 -49 -24 -193 2 -193 6 0 25 24 41 54 28 53 29 54
13 102 -16 52 -40 67 -56 37z"/>
<path d="M28587 18500 c-33 -39 -47 -88 -47 -168 0 -61 0 -62 19 -45 10 10 33
45 50 78 26 48 31 69 29 109 -2 27 -8 51 -14 53 -6 2 -23 -10 -37 -27z"/>
<path d="M10392 18133 l3 -88 45 0 c33 0 44 4 42 14 -1 7 -4 31 -6 53 -3 28
-13 49 -37 74 -18 19 -37 34 -41 34 -5 0 -7 -39 -6 -87z"/>
<path d="M20650 18141 c0 -50 4 -74 16 -85 19 -20 97 -21 112 -3 20 24 -4 80
-52 120 -66 55 -76 51 -76 -32z"/>
<path d="M28497 18140 c-27 -39 -47 -75 -45 -81 2 -5 19 2 38 16 18 14 40 25
47 25 18 0 27 45 17 81 l-9 29 -48 -70z"/>
<path d="M10460 17173 c-91 -8 -187 -27 -248 -47 l-67 -23 41 -6 c52 -9 86
-44 87 -91 2 -59 -35 -84 -267 -185 -115 -50 -212 -91 -217 -91 -5 0 -9 -4 -9
-10 0 -5 -3 -9 -7 -8 -12 3 -83 -23 -83 -30 0 -4 -12 -8 -26 -9 -15 0 -29 -5
-33 -10 -3 -6 -19 -13 -36 -17 -16 -4 -52 -18 -80 -30 -27 -13 -88 -38 -135
-57 -47 -18 -87 -35 -90 -38 -3 -3 -12 -7 -20 -9 -8 -2 -67 -26 -130 -55 -180
-80 -267 -178 -306 -343 -35 -149 -10 -228 354 -1125 235 -579 253 -617 319
-669 l28 -22 3 31 c3 24 -6 42 -36 78 -22 27 -53 73 -70 103 -56 101 -543
1328 -557 1403 -37 193 36 368 203 485 48 34 1288 522 1326 522 6 0 6 -3 0 -9
-13 -12 -450 -195 -817 -342 -166 -67 -304 -124 -307 -128 -3 -4 -40 -22 -84
-40 -43 -18 -85 -38 -93 -44 -37 -30 -123 -116 -123 -123 0 -4 -7 -15 -15 -24
-51 -57 -67 -244 -30 -365 25 -83 471 -1216 508 -1289 38 -77 86 -146 101
-146 3 0 6 24 6 53 1 72 24 193 48 247 29 68 88 156 141 211 48 49 52 60 16
36 -11 -7 -52 -23 -91 -36 l-71 -24 -34 19 c-42 25 -79 78 -79 113 0 14 8 42
18 61 16 32 30 40 177 100 l159 65 12 85 c11 82 18 130 30 215 3 22 17 127 32
233 l28 194 -101 79 c-55 43 -117 93 -138 110 l-38 32 -29 -28 c-107 -102
-207 -325 -224 -499 -3 -32 -8 -61 -12 -65 -12 -11 6 147 26 222 32 127 106
267 180 345 16 18 30 35 30 39 0 4 -12 20 -27 36 -24 25 -25 28 -6 18 12 -6
25 -16 28 -21 10 -17 30 -11 61 15 16 14 53 42 83 62 l54 36 -27 19 c-40 30
-31 41 10 13 l35 -24 49 19 c112 44 120 49 120 69 0 12 5 21 11 21 6 0 8 -9 4
-21 -7 -20 -5 -21 26 -14 95 22 190 25 309 10 54 -7 138 -33 145 -46 8 -12 2
-11 -70 7 -33 8 -104 17 -158 19 l-98 5 22 -22 c15 -16 23 -19 26 -10 8 20 23
3 18 -21 -2 -12 -7 -44 -10 -72 -3 -27 -10 -79 -15 -115 -18 -118 -22 -109
100 -205 76 -60 110 -93 110 -107 0 -15 -5 -19 -20 -15 -23 6 -26 -3 -7 -22
10 -11 8 -11 -10 -2 -19 10 -25 8 -35 -9 -15 -23 -24 -25 -31 -6 -3 8 1 13 11
12 33 -2 20 30 -23 62 -45 33 -65 35 -65 6 0 -8 -5 -12 -10 -9 -7 4 -6 13 1
26 8 15 7 24 -2 35 -11 13 -8 14 17 8 27 -7 26 -5 -16 31 l-45 38 -12 -79
c-18 -120 -20 -113 58 -174 40 -30 86 -67 103 -82 17 -15 34 -28 37 -28 10 0
20 -31 13 -41 -5 -9 -70 32 -111 70 -34 32 -116 91 -120 87 -5 -4 -19 -98 -49
-311 -8 -60 -18 -113 -20 -117 -9 -14 10 -9 139 43 70 28 131 49 134 45 3 -3
-2 -15 -12 -26 -10 -11 -14 -20 -9 -20 5 0 2 -5 -6 -10 -20 -13 -39 -12 -20 1
12 8 9 9 -11 5 -37 -8 -102 -36 -96 -42 3 -3 22 2 42 11 21 8 40 13 42 11 3
-2 -12 -10 -31 -17 -20 -7 -36 -17 -36 -21 0 -4 -9 -8 -21 -8 -11 0 -44 -11
-72 -24 -29 -13 -74 -31 -102 -41 -60 -21 -74 -32 -52 -41 19 -7 13 -24 -8
-24 -9 0 -12 6 -9 15 4 9 1 15 -7 15 -22 0 -99 -32 -99 -41 0 -5 -7 -6 -16 -2
-13 5 -13 7 -2 14 22 14 -7 10 -46 -6 -20 -9 -34 -20 -31 -25 3 -5 -8 -8 -24
-8 -16 1 -41 -9 -57 -21 -15 -12 -45 -24 -66 -28 -59 -9 -98 -46 -98 -91 0
-48 38 -92 80 -92 17 0 166 54 332 121 167 67 325 130 351 140 46 18 48 18 45
2 -2 -12 -34 -30 -91 -54 l-88 -36 428 4 c235 2 433 5 440 6 7 1 -32 37 -85
79 -53 43 -117 96 -142 118 -25 22 -50 38 -57 35 -7 -2 -10 2 -6 11 3 7 7 14
10 14 8 0 95 -61 197 -139 124 -94 134 -100 170 -101 25 0 28 3 22 23 -4 12
-15 58 -24 102 -10 48 -24 85 -34 93 -155 115 -328 266 -328 286 0 5 8 2 18
-6 15 -14 30 -10 167 48 82 35 158 64 170 64 11 0 32 -7 48 -14 26 -14 28 -14
44 17 9 18 45 62 80 98 l64 66 -160 401 c-88 220 -165 411 -171 424 -9 18 -6
17 15 -7 39 -45 90 -159 221 -492 66 -167 121 -303 124 -303 3 0 11 4 19 9 10
7 -13 75 -113 330 -154 392 -196 506 -196 537 0 12 10 35 23 50 19 22 34 28
88 33 l64 6 3 98 c3 113 5 112 -103 75 -57 -20 -69 -21 -119 -11 -31 7 -93 30
-138 52 -73 36 -96 42 -193 51 -106 10 -161 11 -235 3z m-66 -503 c37 -6 80
-17 95 -25 32 -17 24 -18 -54 -4 -103 17 -273 19 -360 2 -44 -8 -89 -16 -100
-18 -36 -5 -228 -86 -253 -106 -14 -10 -29 -19 -34 -19 -27 0 -197 -150 -273
-241 -138 -165 -224 -405 -228 -643 -1 -42 -5 -72 -11 -69 -15 10 1 232 24
327 49 198 130 344 275 494 81 84 153 139 242 182 23 11 44 24 47 29 7 11 131
56 191 69 172 39 289 44 439 22z m-134 -166 c0 -8 -5 -12 -10 -9 -6 4 -8 11
-5 16 9 14 15 11 15 -7z m808 -230 c17 -23 32 -45 32 -49 0 -4 -10 5 -22 21
-12 16 -43 51 -68 77 -25 27 -47 54 -49 60 -6 16 66 -58 107 -109z m-1488
-264 c0 -15 -29 -72 -49 -94 -9 -10 -14 -20 -12 -22 8 -10 -34 -134 -44 -130
-5 2 -8 10 -6 17 2 8 4 22 5 32 0 11 6 15 15 12 11 -4 12 -3 1 10 -8 10 -9 19
-3 28 6 6 13 26 17 42 12 50 47 115 62 115 8 0 14 -5 14 -10z m-95 -277 c-4
-10 -9 -35 -12 -55 -7 -50 -23 -49 -23 2 0 23 5 40 11 40 8 0 8 5 -1 15 -10
13 -9 15 10 15 17 0 21 -4 15 -17z m-17 -138 c0 -25 -12 -33 -22 -16 -7 11 3
41 14 41 4 0 8 -11 8 -25z m6 -62 c13 -67 16 -113 8 -113 -13 0 -19 17 -27 83
-5 37 -4 57 3 57 6 0 13 -12 16 -27z m-286 -34 c-3 -8 -7 -3 -11 10 -4 17 -3
21 5 13 5 -5 8 -16 6 -23z m12 -54 c0 -5 -5 -3 -10 5 -5 8 -10 20 -10 25 0 6
5 3 10 -5 5 -8 10 -19 10 -25z m304 -51 c4 -10 1 -14 -6 -12 -15 5 -23 28 -10
28 5 0 13 -7 16 -16z m741 -74 c-3 -5 -14 -10 -23 -10 -15 0 -15 2 -2 10 20
13 33 13 25 0z m-125 -50 c-20 -13 -33 -13 -25 0 3 6 14 10 23 10 15 0 15 -2
2 -10z m-255 -100 c-3 -5 -11 -10 -16 -10 -6 0 -7 5 -4 10 3 6 11 10 16 10 6
0 7 -4 4 -10z m-130 -10 c-3 -5 -12 -10 -18 -10 -7 0 -6 4 3 10 19 12 23 12
15 0z"/>
<path d="M24291 17130 c-156 -32 -269 -170 -326 -395 -23 -92 -70 -385 -100
-625 -27 -209 -28 -216 -58 -247 -42 -45 -204 -159 -338 -239 -63 -37 -126
-79 -141 -92 -41 -37 -62 -101 -53 -159 14 -93 124 -168 213 -144 20 6 90 42
155 81 64 38 121 70 125 70 4 0 6 -15 4 -34 -8 -70 32 -142 99 -176 67 -35
148 -24 202 28 43 41 54 68 66 170 23 184 57 308 118 424 41 78 111 148 148
148 22 0 25 -4 25 -36 0 -20 -10 -91 -21 -158 -29 -163 -29 -294 -1 -365 60
-152 172 -228 352 -238 105 -7 206 8 331 48 l97 30 49 -25 c88 -44 167 -60
303 -60 100 0 141 4 204 22 88 25 204 76 261 115 l37 25 66 -54 c184 -151 440
-151 705 0 l79 45 53 -43 c189 -155 451 -154 678 3 24 16 49 37 56 45 12 15
19 11 66 -33 196 -186 499 -172 700 33 120 122 185 287 185 472 l0 93 42 12
c73 19 160 69 220 126 95 91 119 171 79 259 -40 88 -156 125 -246 77 -11 -6
-37 -30 -57 -52 -46 -51 -99 -75 -149 -67 -20 3 -79 26 -131 51 -190 91 -377
78 -536 -39 -110 -82 -179 -184 -236 -353 -18 -54 -44 -120 -56 -147 -86 -180
-259 -282 -367 -216 -18 11 -33 26 -33 35 0 8 19 41 43 72 166 221 322 556
375 804 93 432 21 660 -221 709 -200 40 -370 -108 -481 -418 -90 -253 -156
-725 -136 -976 8 -99 8 -100 -17 -120 -53 -43 -150 -97 -202 -113 -94 -27
-201 -4 -201 44 0 7 21 41 46 75 65 89 177 280 234 400 91 194 149 406 172
628 31 303 -91 485 -322 484 -258 -1 -446 -325 -524 -904 -26 -192 -37 -387
-28 -485 11 -108 8 -113 -106 -180 -71 -42 -196 -85 -208 -72 -4 4 18 39 49
79 67 88 101 159 123 257 39 174 -16 340 -144 438 -97 74 -272 85 -394 25
-115 -57 -210 -179 -260 -337 -27 -84 -35 -278 -15 -363 14 -61 14 -63 -7 -74
-11 -6 -58 -14 -103 -16 -71 -4 -84 -2 -89 13 -4 9 6 92 21 183 41 248 30 337
-56 458 -18 24 -57 61 -87 80 -29 20 -51 41 -48 47 134 310 156 502 79 665
-64 136 -215 212 -362 182z m175 -108 c22 -11 49 -31 61 -44 29 -31 62 -106
65 -149 3 -31 0 -34 -24 -35 -15 -1 -35 -7 -45 -15 -11 -9 -14 -10 -9 -1 4 6
3 12 -3 12 -5 0 -12 -4 -15 -8 -3 -5 -18 -7 -34 -4 -22 3 -32 12 -41 38 -21
58 -96 59 -131 1 -26 -42 -63 -160 -84 -267 -26 -137 -66 -413 -60 -422 3 -4
26 6 50 23 94 65 189 82 293 55 97 -26 165 -87 196 -176 28 -80 28 -137 1
-303 -35 -211 -34 -240 4 -279 l31 -31 107 6 c74 3 127 12 172 27 36 13 66 24
67 25 2 0 -7 26 -19 56 -27 68 -37 258 -18 352 17 89 71 198 125 256 123 131
310 147 433 36 58 -52 81 -102 92 -198 18 -156 -40 -287 -197 -445 -56 -57
-96 -105 -90 -107 36 -13 108 -25 152 -25 109 0 283 69 387 153 l56 46 12 -47
c6 -26 21 -66 33 -90 l21 -43 -29 -24 c-17 -13 -62 -42 -102 -65 -216 -124
-464 -144 -649 -50 l-80 41 -56 -26 c-170 -78 -397 -94 -516 -38 -54 26 -118
96 -136 150 -22 63 -20 183 4 323 39 227 22 289 -81 290 -154 1 -296 -241
-344 -586 -20 -143 -29 -171 -66 -189 -44 -23 -77 -18 -111 16 -30 30 -31 31
-25 107 16 197 43 448 56 522 6 30 22 147 36 260 69 539 117 719 220 820 79
78 199 99 291 52z m2949 -5 c87 -48 121 -144 112 -322 -10 -192 -64 -411 -149
-596 -42 -93 -61 -111 -85 -82 -14 17 -14 17 -9 1 5 -15 3 -16 -14 -5 -11 6
-20 19 -20 27 0 13 -1 13 -10 0 -5 -8 -10 -10 -10 -4 0 6 -13 14 -30 17 -26 6
-29 9 -21 29 5 13 26 66 46 118 76 193 117 375 119 531 1 104 -8 129 -49 129
-49 0 -115 -100 -175 -265 -44 -123 -48 -128 -64 -113 -8 7 -12 16 -9 20 2 5
-24 6 -59 4 -35 -2 -57 -1 -50 1 6 3 12 9 12 14 0 4 -6 6 -14 3 -12 -5 -12 4
-1 58 51 240 175 424 310 459 45 12 125 0 170 -24z m-3091 -377 c-16 -68 -31
-99 -20 -41 10 56 27 113 31 109 2 -2 -3 -33 -11 -68z m2254 39 c26 -1 60 0
76 1 l28 2 -7 -64 c-18 -168 -82 -405 -149 -552 -61 -134 -259 -448 -297 -471
-14 -10 -28 39 -39 140 l-11 93 41 63 c61 95 174 322 209 423 27 75 67 249 85
361 6 40 8 43 13 23 3 -14 16 -18 51 -19z m672 -75 c-25 -148 -106 -410 -117
-377 -14 42 103 470 123 450 3 -2 0 -36 -6 -73z m-865 -110 c-28 -123 -93
-307 -94 -266 -2 58 60 315 98 407 l16 40 3 -31 c2 -18 -9 -85 -23 -150z
m2476 -234 c28 -15 51 -67 44 -98 -8 -38 -78 -117 -130 -148 -45 -26 -106 -47
-102 -36 2 7 -14 52 -39 110 -13 30 -12 34 7 50 12 9 44 40 73 68 28 28 58 54
66 57 25 9 60 8 81 -3z m-642 -315 c39 -33 53 -79 53 -168 -1 -160 -90 -287
-200 -287 -119 0 -165 165 -92 334 52 123 167 181 239 121z"/>
<path d="M25350 16053 c-54 -20 -119 -119 -139 -211 -20 -98 -6 -249 25 -259
16 -5 112 77 163 139 65 79 91 141 91 216 0 57 -3 67 -29 93 -29 28 -70 37
-111 22z m58 -117 c4 -47 -26 -111 -79 -168 l-40 -43 4 61 c5 69 33 140 68
173 31 28 43 22 47 -23z"/>
<path d="M13005 16479 c-82 -13 -156 -45 -815 -346 -627 -287 -699 -323 -775
-395 -152 -142 -184 -324 -97 -548 13 -36 26 -66 27 -67 1 -2 87 -7 191 -13
104 -5 215 -16 247 -25 127 -33 271 -129 341 -229 59 -82 102 -169 115 -235
19 -88 31 -366 31 -702 l0 -317 23 -6 c83 -22 189 7 457 127 337 151 868 396
1058 488 193 95 252 146 310 268 32 67 36 84 40 180 l4 106 -45 110 c-103 254
-567 1265 -628 1368 -73 122 -183 206 -305 232 -76 16 -104 17 -179 4z m-1275
-969 c11 -27 16 -30 60 -29 55 2 72 -5 63 -26 -3 -10 -20 -15 -50 -15 -36 0
-50 -6 -75 -30 -28 -28 -29 -32 -15 -53 13 -20 23 -22 101 -23 101 -1 131 -14
146 -60 14 -42 6 -68 -31 -103 -29 -28 -29 -29 -14 -64 19 -45 19 -57 2 -57
-8 0 -22 17 -31 38 l-17 38 -65 -4 c-64 -4 -66 -4 -62 19 3 20 9 23 48 24 51
1 97 21 116 50 12 18 11 24 -2 43 -13 20 -24 22 -97 22 -92 0 -126 13 -145 54
-17 34 -9 67 23 102 29 32 29 26 11 69 -11 25 -11 35 -3 38 17 6 23 1 37 -33z"/>
<path d="M9918 16377 c-28 -13 -45 -26 -40 -32 4 -5 28 -25 55 -43 46 -33 47
-33 48 -10 1 25 4 48 14 85 7 30 -13 30 -77 0z"/>
<path d="M9790 16290 c-9 -6 -10 -10 -3 -10 6 0 15 5 18 10 8 12 4 12 -15 0z"/>
<path d="M9821 16271 c-10 -6 -6 -15 16 -35 29 -27 61 -42 70 -32 15 15 -67
79 -86 67z"/>
<path d="M9880 16271 c0 -6 4 -11 9 -11 5 0 17 -7 26 -16 9 -9 18 -14 21 -11
3 3 -9 15 -25 27 -17 12 -31 17 -31 11z"/>
<path d="M10069 16273 c0 -5 -2 -18 -5 -30 -5 -31 23 -38 30 -7 4 14 4 29 1
34 -7 12 -25 13 -26 3z"/>
<path d="M10116 16243 c-5 -17 -3 -29 6 -34 15 -10 28 7 28 39 0 31 -26 28
-34 -5z"/>
<path d="M9760 16245 c0 -8 2 -15 4 -15 2 0 6 7 10 15 3 8 1 15 -4 15 -6 0
-10 -7 -10 -15z"/>
<path d="M10032 16230 c0 -14 2 -19 5 -12 2 6 2 18 0 25 -3 6 -5 1 -5 -13z"/>
<path d="M10163 16217 c-1 -30 -1 -31 9 -9 7 14 8 26 2 32 -5 5 -10 -4 -11
-23z"/>
<path d="M9684 16229 c-3 -6 1 -18 10 -27 15 -15 16 -14 16 11 0 27 -13 36
-26 16z"/>
<path d="M9783 16221 c-3 -12 -11 -17 -19 -14 -19 7 -17 -8 4 -33 28 -34 169
-144 176 -137 3 4 6 26 6 49 0 33 -5 46 -22 58 -30 21 -37 20 -46 -5 -8 -20
-9 -20 -23 -3 -7 10 -9 15 -3 11 7 -4 15 1 19 11 4 12 -4 26 -32 49 -44 38
-53 40 -60 14z"/>
<path d="M9921 16191 c-10 -6 -9 -12 4 -25 20 -20 35 -21 35 -2 0 20 -23 36
-39 27z"/>
<path d="M10063 16192 c-5 -4 -13 -33 -17 -64 -6 -49 -5 -58 8 -58 16 0 20 13
30 82 5 39 -2 52 -21 40z"/>
<path d="M10106 16173 c-3 -10 -8 -40 -12 -66 -6 -44 -5 -49 12 -45 15 2 20
15 26 58 3 30 4 58 2 62 -9 14 -22 9 -28 -9z"/>
<path d="M10016 16129 c-4 -28 -5 -53 -3 -56 3 -2 8 19 12 47 4 28 5 53 2 56
-2 3 -7 -19 -11 -47z"/>
<path d="M10150 16152 c0 -11 -3 -41 -6 -68 -3 -32 -2 -44 4 -34 14 23 23 108
12 115 -6 3 -10 -2 -10 -13z"/>
<path d="M9996 16013 c-7 -47 -8 -78 -1 -71 9 9 23 108 15 108 -4 0 -10 -17
-14 -37z"/>
<path d="M10037 16043 c-13 -21 -18 -101 -7 -108 19 -11 28 6 32 59 2 31 -1
51 -9 53 -6 2 -13 0 -16 -4z"/>
<path d="M10079 16018 c-5 -78 -7 -95 -12 -108 -3 -8 -8 -22 -10 -30 -3 -9 -6
-6 -6 8 -1 20 -25 41 -36 31 -2 -2 -7 -32 -11 -67 -6 -58 -5 -62 14 -62 11 0
23 6 25 13 3 6 6 3 6 -8 0 -11 -4 -27 -9 -35 -8 -13 -10 -12 -10 3 0 10 -8 17
-20 17 -13 0 -20 -7 -20 -20 0 -11 -1 -23 -2 -27 -1 -5 -4 -22 -8 -40 -8 -34
6 -48 35 -37 8 4 15 2 15 -3 0 -17 -12 -22 -31 -13 -13 8 -20 6 -28 -7 -10
-17 -10 -17 -11 0 0 24 -16 21 -25 -5 -6 -21 -9 -70 -6 -100 1 -7 9 -2 17 12
8 14 13 17 10 8 -3 -10 -1 -20 5 -23 18 -12 -2 -24 -32 -20 -25 3 -28 1 -18
-11 6 -8 7 -14 2 -14 -6 0 -9 -11 -8 -25 2 -14 -1 -25 -6 -25 -5 0 -4 -9 3
-20 11 -17 11 -22 0 -29 -7 -4 -15 -21 -18 -37 -3 -16 -7 -30 -10 -33 -10 -11
19 -30 34 -22 21 11 57 26 102 42 19 7 38 15 42 18 4 3 11 42 17 86 6 44 13
91 16 105 5 32 12 81 20 145 8 63 13 96 30 220 19 128 19 136 0 111 -15 -19
-15 -19 -15 2 0 31 -39 31 -41 0z m38 -104 c-3 -3 -12 -4 -19 -1 -8 3 -5 6 6
6 11 1 17 -2 13 -5z m-84 -199 c-3 -9 -8 -14 -10 -11 -3 3 -2 9 2 15 9 16 15
13 8 -4z m-63 -112 c0 -5 -5 -15 -10 -23 -7 -12 -9 -10 -7 8 1 19 17 33 17 15z
m37 -88 c0 -8 -7 -15 -15 -15 -12 0 -12 3 -2 15 7 8 13 15 15 15 1 0 2 -7 2
-15z m-67 -135 c0 -5 -4 -10 -10 -10 -5 0 -10 5 -10 10 0 6 5 10 10 10 6 0 10
-4 10 -10z"/>
<path d="M10320 15920 c44 -39 60 -48 60 -32 -1 9 -86 72 -97 72 -4 -1 12 -19
37 -40z"/>
<path d="M9976 15883 c-9 -55 -8 -89 3 -77 11 12 22 114 12 114 -5 0 -11 -17
-15 -37z"/>
<path d="M9955 15745 c-4 -25 -11 -43 -15 -40 -5 3 -3 -6 3 -19 16 -33 23 -22
31 41 8 64 -10 81 -19 18z"/>
<path d="M11110 15700 c0 -5 -9 -10 -20 -10 -26 0 -100 -30 -100 -40 0 -5 10
-10 23 -13 20 -3 20 -4 4 -11 -12 -6 -22 -3 -30 8 -11 14 -17 15 -42 6 -19 -7
-31 -8 -33 -1 -4 12 -61 -6 -82 -26 -13 -13 -12 -14 10 -8 18 4 21 4 11 -4
-13 -8 -11 -13 10 -30 13 -11 27 -20 30 -21 3 0 19 -11 35 -26 49 -42 55 -44
114 -20 48 19 55 26 62 57 4 20 16 59 27 86 18 45 18 52 5 57 -21 8 -24 8 -24
-4z m20 -20 c0 -5 -5 -10 -11 -10 -5 0 -7 5 -4 10 3 6 8 10 11 10 2 0 4 -4 4
-10z"/>
<path d="M10975 15674 l-30 -15 30 6 c17 4 34 11 40 16 13 13 -5 10 -40 -7z"/>
<path d="M11048 15473 c-35 -14 -51 -33 -29 -33 5 0 23 -12 40 -26 l31 -26 0
51 c0 28 -1 51 -2 50 -2 -1 -20 -8 -40 -16z"/>
<path d="M10125 15335 c-27 -13 -43 -23 -35 -24 8 0 38 11 65 24 28 13 43 23
35 24 -8 0 -37 -11 -65 -24z"/>
<path d="M10015 15290 c-22 -11 -29 -17 -15 -14 29 8 80 33 65 33 -5 0 -28 -8
-50 -19z"/>
<path d="M24270 15289 c0 -5 5 -7 10 -4 6 3 10 8 10 11 0 2 -4 4 -10 4 -5 0
-10 -5 -10 -11z"/>
<path d="M9915 15251 c-22 -11 -34 -20 -27 -20 14 -1 72 27 72 34 0 7 0 7 -45
-14z"/>
<path d="M10305 14929 c-246 -10 -294 -23 -402 -108 -59 -46 -137 -164 -153
-231 -31 -128 -39 -1373 -10 -1600 20 -161 106 -283 250 -353 68 -33 87 -38
210 -48 172 -16 1234 -15 1417 0 117 9 140 14 195 42 35 17 80 45 100 61 51
40 134 166 147 225 31 133 39 1377 11 1603 -13 98 -40 163 -98 236 -47 60
-165 138 -232 154 -109 26 -980 38 -1435 19z m835 -297 c3 -4 23 -19 45 -34
82 -56 285 -267 285 -297 0 -6 3 -11 8 -11 6 0 25 -28 58 -87 37 -66 45 -82
64 -128 12 -27 25 -59 30 -70 9 -19 21 -62 40 -150 11 -46 11 -277 2 -350 -7
-47 -5 -54 39 -125 25 -41 50 -86 54 -100 4 -14 11 -29 15 -35 13 -16 32 -115
37 -192 4 -64 2 -74 -18 -94 l-23 -23 -20 29 c-60 85 -146 135 -230 135 -51 0
-124 -24 -231 -76 -50 -24 -100 -44 -111 -44 -11 0 -24 -4 -29 -9 -12 -12
-261 -45 -281 -37 -8 3 -54 10 -102 16 -48 6 -98 14 -112 19 -14 5 -50 17 -80
26 -91 28 -270 112 -270 127 0 4 -5 8 -10 8 -11 0 -63 34 -88 58 -7 6 -17 12
-22 12 -15 0 -205 192 -250 252 -26 36 -40 64 -36 74 3 8 9 13 13 11 5 -3 38
-23 75 -46 37 -22 79 -43 93 -47 14 -3 25 -10 25 -15 0 -5 6 -9 12 -9 11 0 78
-24 143 -51 98 -41 360 -56 470 -28 84 22 171 52 194 67 l23 16 -43 39 c-245
217 -303 274 -489 483 -20 21 -53 61 -75 89 -22 27 -47 56 -55 65 -25 26 -84
101 -94 119 -5 9 -15 21 -21 26 -27 23 -85 114 -84 131 0 11 3 14 6 7 2 -7 10
-13 16 -13 7 0 28 -14 47 -31 75 -65 87 -76 155 -129 89 -70 81 -64 140 -107
28 -21 55 -41 60 -46 6 -4 51 -37 100 -72 50 -35 95 -68 100 -73 13 -11 45
-23 45 -17 0 5 -25 36 -81 99 -19 23 -73 88 -118 146 -46 58 -91 114 -100 126
-59 75 -131 184 -131 201 0 20 16 8 145 -112 142 -132 243 -219 380 -325 39
-30 75 -58 80 -63 6 -4 51 -37 100 -72 50 -35 95 -69 102 -75 7 -5 15 -10 18
-10 3 0 19 -10 35 -21 38 -29 52 -21 70 37 20 64 22 386 3 406 -7 6 -13 20
-13 30 0 21 -36 128 -56 167 -8 14 -14 29 -14 33 0 4 -20 40 -44 80 -24 40
-47 83 -51 96 -6 21 -5 21 22 11 15 -5 30 -13 33 -17z"/>
<path d="M12266 13128 c-2 -7 -7 -56 -10 -108 -10 -162 -45 -254 -142 -376
-123 -154 -259 -220 -497 -240 l-68 -6 3 -596 c3 -587 4 -598 26 -664 30 -89
95 -175 172 -226 120 -81 72 -76 924 -80 487 -2 778 1 815 8 135 24 264 120
318 237 51 111 53 134 53 900 0 786 -2 812 -61 923 -54 102 -157 183 -274 216
-53 15 -132 18 -657 22 -494 3 -599 2 -602 -10z m1102 -508 c2 -154 -1 -227
-9 -236 -6 -8 -84 -37 -173 -65 -88 -28 -201 -64 -251 -80 -49 -16 -95 -29
-102 -29 -17 0 -26 -19 -11 -25 7 -2 101 -32 208 -65 304 -96 312 -99 326
-111 21 -17 20 -457 0 -465 -14 -5 -198 51 -701 215 -132 43 -307 100 -390
125 -82 26 -166 54 -185 64 l-35 17 0 230 0 230 35 17 c19 10 109 41 200 69
232 72 315 98 395 124 39 13 138 44 220 70 177 55 319 100 395 126 30 10 60
17 65 15 6 -2 11 -88 13 -226z m-855 -931 c69 -20 104 -30 217 -64 28 -8 73
-22 100 -30 28 -8 71 -21 98 -29 26 -8 88 -27 137 -41 141 -42 142 -42 125
-48 -29 -11 -167 -56 -360 -117 -107 -33 -206 -65 -220 -70 -14 -5 -99 -32
-190 -60 -91 -29 -205 -65 -255 -81 -49 -16 -98 -29 -107 -29 -17 0 -18 17
-18 219 0 121 3 226 6 235 4 10 65 34 168 67 88 28 172 54 186 59 35 12 33 12
113 -11z"/>
<path d="M19595 12921 c-3 -5 -20 -13 -38 -16 -17 -4 -66 -25 -109 -47 -60
-31 -96 -60 -175 -141 -136 -142 -185 -249 -187 -415 -1 -63 2 -76 19 -89 57
-43 276 46 393 160 83 81 122 140 171 262 36 86 41 109 41 175 0 67 -3 79 -23
98 -24 22 -81 30 -92 13z"/>
<path d="M18365 12150 c-56 -14 -106 -41 -203 -107 -124 -84 -151 -110 -216
-208 -49 -74 -62 -99 -111 -210 -13 -29 -20 -82 -26 -190 -4 -82 -12 -172 -18
-199 -8 -37 -7 -64 4 -120 8 -39 15 -102 15 -141 1 -38 5 -90 11 -115 5 -25
15 -70 20 -100 16 -90 39 -153 113 -310 33 -71 127 -239 148 -265 4 -5 41 -55
82 -110 140 -191 274 -289 411 -302 45 -4 78 -1 112 10 26 8 66 19 88 23 22 3
45 10 50 14 6 3 33 15 60 26 43 16 76 19 225 18 169 -1 178 -2 268 -32 164
-55 383 -53 474 4 47 29 228 202 228 217 0 5 14 26 30 47 17 21 30 41 30 45 0
4 13 24 29 44 15 20 57 95 92 166 58 118 64 136 64 192 0 70 -13 90 -94 146
-123 84 -205 207 -250 372 -37 136 -43 176 -33 223 6 26 13 68 16 95 15 127
77 260 165 353 42 43 75 89 86 117 17 44 17 47 -2 79 -32 56 -204 160 -329
201 -41 14 -92 17 -253 17 l-202 0 -137 -46 c-75 -25 -142 -50 -148 -55 -16
-13 -101 -14 -116 -1 -7 6 -30 13 -51 17 -20 4 -40 11 -43 16 -3 5 -13 9 -23
9 -19 0 -75 16 -184 51 -46 15 -85 19 -205 18 -81 -1 -160 -5 -177 -9z"/>
<path d="M25709 11815 c-48 -17 -108 -56 -141 -91 -76 -82 -276 -518 -423
-923 -31 -85 -36 -105 -24 -111 27 -16 416 -285 524 -363 227 -164 452 -347
525 -426 l76 -81 82 0 c56 0 93 -5 113 -16 30 -15 32 -15 82 20 29 19 183 124
342 234 l290 200 63 163 c34 90 87 238 118 329 55 162 56 167 52 255 -4 73
-10 101 -34 150 -59 121 -125 163 -549 343 -442 188 -742 294 -891 317 -119
18 -157 18 -205 0z"/>
<path d="M8508 10795 c-3 -3 -4 -27 -1 -53 20 -216 19 -253 -3 -385 -3 -20 -2
-43 4 -50 28 -35 16 -179 -20 -242 -6 -11 -14 -33 -18 -50 -4 -21 -12 -31 -28
-33 -14 -2 -35 -23 -57 -57 -19 -30 -49 -71 -68 -92 -46 -52 -88 -116 -127
-193 -32 -65 -69 -118 -120 -175 -15 -16 -46 -66 -70 -110 -25 -49 -66 -105
-105 -145 -35 -36 -66 -76 -70 -89 -7 -21 -19 -48 -71 -146 -6 -11 -18 -36
-26 -55 -9 -19 -35 -78 -58 -130 -23 -52 -59 -147 -80 -210 -57 -170 -62 -183
-76 -211 -20 -40 -74 -210 -74 -236 0 -12 -4 -24 -10 -28 -5 -3 -19 -38 -31
-78 -52 -174 -112 -365 -125 -394 -8 -17 -14 -37 -14 -45 0 -7 -12 -44 -26
-83 -14 -38 -29 -84 -33 -101 -5 -18 -11 -37 -15 -43 -4 -6 -12 -39 -17 -73
-6 -35 -19 -90 -30 -123 -11 -33 -24 -80 -29 -105 -19 -93 -48 -207 -72 -280
-25 -75 -48 -178 -48 -217 0 -11 -12 -56 -26 -99 -32 -97 -48 -169 -79 -349
-14 -77 -29 -158 -35 -180 -5 -22 -10 -65 -10 -95 0 -30 -7 -80 -15 -110 -8
-30 -15 -74 -15 -97 0 -24 -13 -89 -29 -145 -16 -57 -32 -143 -36 -193 -3 -49
-10 -106 -15 -125 -4 -19 -11 -47 -14 -61 -5 -22 -10 -25 -31 -21 l-25 4 0
-104 0 -105 53 -11 c128 -28 268 -32 1302 -33 589 0 1096 -4 1128 -8 61 -8 73
-17 84 -63 l6 -28 9801 0 9802 0 19 42 c15 31 28 44 50 50 17 4 499 8 1071 8
701 0 1059 3 1095 11 30 5 78 15 107 21 l52 11 0 154 0 153 -23 0 c-47 0 -58
27 -67 177 -10 152 -17 198 -61 383 -16 69 -29 134 -29 144 0 21 -21 117 -44
201 -13 47 -24 109 -62 342 -19 115 -26 151 -52 258 -11 44 -23 104 -26 134
-4 29 -22 99 -41 155 -19 55 -39 136 -45 179 -6 42 -20 103 -31 135 -36 102
-49 156 -59 237 -6 44 -26 121 -45 170 -45 118 -63 186 -79 287 -7 46 -40 162
-73 258 -33 96 -73 215 -88 265 -15 49 -41 117 -57 150 -41 82 -143 235 -211
318 -31 37 -63 89 -72 115 -37 105 -55 144 -97 212 -24 40 -65 109 -93 155
-56 92 -127 190 -149 202 -8 4 -41 34 -75 65 -35 33 -63 53 -67 47 -3 -6 -1
-92 6 -192 9 -137 9 -233 1 -387 -18 -340 -32 -564 -36 -570 -2 -3 -6 -96 -10
-206 -3 -109 -10 -253 -15 -319 -5 -66 -12 -190 -15 -275 -4 -85 -13 -193 -21
-240 -8 -47 -14 -129 -14 -183 0 -97 -9 -134 -37 -150 -11 -7 -11 -12 -2 -23
8 -10 11 -96 10 -305 0 -161 -3 -294 -6 -297 -14 -14 -30 25 -36 86 -5 62 4
258 15 327 4 23 0 34 -18 47 -13 9 -28 13 -35 8 -24 -14 -43 -138 -35 -225 4
-44 7 -83 6 -87 -1 -4 -2 -68 -3 -142 0 -116 -3 -135 -17 -141 -16 -6 -16 -7
0 -19 9 -7 18 -29 20 -52 3 -37 5 -39 41 -42 l37 -3 0 -167 c0 -91 -4 -191
-10 -221 -5 -31 -13 -81 -18 -111 -7 -43 -10 -51 -17 -35 -5 11 -12 23 -17 26
-5 3 -17 44 -26 90 -10 46 -21 90 -25 97 -5 6 -5 16 -2 22 8 13 -6 110 -16
110 -5 0 -9 -15 -9 -34 0 -18 -7 -39 -15 -46 -10 -9 -15 -32 -15 -76 0 -34 -4
-65 -9 -69 -5 -3 -12 -19 -16 -35 -4 -17 -11 -30 -16 -30 -5 0 -9 -18 -9 -39
0 -22 -11 -61 -25 -89 -14 -28 -25 -55 -25 -61 0 -6 -21 -53 -46 -104 -62
-123 -126 -185 -265 -254 -57 -29 -131 -57 -164 -64 -33 -6 -68 -15 -77 -20
-9 -5 -68 -15 -130 -23 -152 -19 -1323 -23 -1345 -4 -11 9 -128 11 -476 8
-542 -4 -541 -4 -1027 1 -206 2 -380 8 -387 12 -15 9 -177 21 -273 20 -408 -6
-1496 -4 -1645 3 -192 8 -264 9 -810 2 -218 -2 -324 1 -389 11 -69 10 -311 14
-1085 17 -1270 5 -1856 11 -2101 22 -107 4 -265 6 -350 3 -178 -7 -701 3 -775
14 -27 4 -120 9 -205 10 -118 3 -159 0 -170 -10 -30 -27 -96 -28 -840 -17
-361 5 -491 10 -507 20 -30 17 -160 13 -197 -6 -24 -12 -63 -13 -210 -9 -100
3 -208 9 -241 12 -87 9 -224 12 -220 4 10 -15 -132 -15 -170 0 -17 7 -68 11
-122 10 -66 -2 -96 1 -108 11 -25 21 -162 25 -191 5 -13 -8 -45 -15 -72 -15
-27 0 -71 -7 -97 -15 -32 -9 -53 -11 -61 -4 -6 5 -156 12 -355 15 -189 3 -452
9 -584 13 -132 4 -287 4 -345 0 -58 -4 -260 -8 -448 -9 -300 -1 -346 1 -361
14 -21 19 -35 21 -25 4 5 -8 2 -9 -12 -2 -29 14 -467 10 -472 -5 -5 -15 -29
-14 -35 2 -3 9 -7 9 -18 1 -8 -6 -66 -14 -129 -17 -70 -3 -116 -9 -118 -16 -4
-13 -160 -15 -181 -2 -9 6 -22 6 -32 0 -12 -6 -22 -4 -33 6 -16 17 -91 21 -81
5 3 -5 2 -10 -4 -10 -5 0 -12 6 -14 13 -4 10 -6 10 -6 0 -1 -7 -6 -13 -12 -13
-5 0 -7 5 -4 10 4 6 -7 10 -25 10 -18 0 -29 -4 -25 -10 3 -5 2 -10 -4 -10 -5
0 -12 6 -14 13 -4 10 -6 10 -6 0 -1 -7 -6 -13 -12 -13 -5 0 -7 5 -4 10 4 6
-12 10 -40 10 -28 0 -44 -4 -40 -10 3 -6 1 -10 -4 -10 -6 0 -11 4 -11 9 0 6
-8 10 -17 10 -81 -1 -187 9 -190 18 -4 10 -42 9 -164 -6 -41 -5 -136 -13 -210
-17 -74 -3 -142 -10 -151 -15 -24 -13 -112 -11 -125 2 -8 8 -17 8 -31 0 -26
-14 -86 -14 -132 -1 -19 5 -62 13 -95 16 -33 3 -85 14 -115 24 -30 10 -89 21
-130 24 -156 14 -175 17 -190 31 -9 8 -20 15 -24 15 -4 0 -12 5 -19 10 -36 30
-107 80 -111 78 -2 -2 -17 15 -31 37 -15 22 -33 43 -40 47 -6 4 -12 21 -13 38
0 17 -6 38 -14 47 -8 10 -11 40 -9 89 2 57 -1 77 -13 90 -20 20 -20 48 0 68 8
9 11 16 5 16 -16 0 -28 56 -30 144 -1 44 -7 89 -14 100 -6 12 -12 37 -13 56
-3 101 -17 246 -25 255 -4 6 -8 64 -8 129 0 90 -4 123 -15 135 -12 13 -15 49
-15 165 -1 104 -5 153 -13 164 -9 10 -13 62 -14 171 -1 86 -5 181 -9 211 -3
30 -9 76 -12 103 -3 26 -9 47 -13 47 -20 0 -35 84 -50 285 -5 72 -14 148 -19
170 -6 22 -12 82 -15 132 -2 51 -8 98 -13 105 -4 7 -9 75 -10 151 -1 82 -6
144 -12 151 -6 8 -13 48 -16 90 -3 50 -10 82 -20 92 -10 11 -15 36 -15 82 0
239 -9 477 -19 480 -6 2 -11 23 -11 47 0 24 -6 48 -14 54 -8 7 -15 38 -18 76
-2 42 -10 70 -21 83 -9 10 -14 22 -10 26 4 3 -17 28 -45 54 -54 49 -57 62 -15
62 l24 0 -3 118 c-2 72 -7 121 -15 127 -7 6 -13 64 -17 155 -5 156 -19 264
-34 283 -6 7 -13 55 -18 107 -4 55 -13 105 -22 118 -8 12 -12 31 -9 41 5 20
-5 45 -15 36z m39 -952 c-15 -16 -17 -16 -17 -1 0 9 6 18 13 21 20 7 22 -2 4
-20z"/>
<path d="M27614 10301 c-78 -19 -291 -148 -657 -398 -548 -375 -652 -460 -677
-554 -7 -24 -10 -94 -8 -168 3 -109 6 -133 27 -176 51 -103 565 -857 696
-1020 108 -134 134 -159 200 -190 92 -43 186 -46 290 -8 118 44 485 283 930
606 277 202 349 284 376 429 22 119 -13 196 -251 553 -346 520 -558 802 -648
861 -92 61 -193 85 -278 65z m-66 -457 c15 -10 22 -25 22 -48 0 -38 14 -50
100 -87 30 -12 70 -35 88 -49 18 -15 117 -152 220 -306 104 -153 213 -314 243
-357 30 -43 71 -105 92 -137 l38 -59 -22 -43 c-39 -77 -82 -131 -178 -225
-112 -110 -230 -193 -372 -261 -144 -70 -171 -78 -267 -74 -77 3 -82 5 -82 25
1 20 2 20 11 5 15 -27 108 -25 132 2 9 11 26 20 38 20 11 0 33 6 47 14 15 7
50 24 77 36 28 13 52 26 55 29 3 4 17 12 32 18 84 37 281 192 363 285 64 73
116 188 86 188 -5 0 -13 10 -17 22 -4 12 -20 33 -35 47 -16 14 -29 31 -29 37
0 7 -7 14 -15 18 -8 3 -15 15 -15 26 0 11 -7 20 -15 20 -8 0 -15 7 -15 15 0
21 -37 19 -49 -4 -6 -10 -26 -22 -46 -25 -39 -8 -41 -12 -20 -40 8 -11 15 -26
15 -35 0 -8 8 -23 17 -34 11 -12 17 -34 17 -59 -1 -37 -8 -47 -80 -115 -67
-63 -213 -173 -230 -173 -3 0 -35 -13 -71 -30 -35 -16 -71 -30 -79 -30 -9 0
-23 -4 -33 -10 -28 -15 -41 1 -231 276 -25 35 -72 101 -104 146 -72 100 -72
101 37 148 62 27 150 80 160 97 4 7 12 13 17 13 5 0 32 23 59 50 l50 50 -72 2
c-171 5 -238 1 -256 -16 -10 -9 -22 -16 -27 -17 -13 0 -72 -93 -80 -126 -17
-67 -45 -113 -68 -113 -20 0 -66 46 -66 67 0 5 -9 16 -20 26 -33 28 -36 7 -17
-128 2 -16 2 -20 0 -7 -2 12 -11 22 -19 22 -8 0 -14 7 -14 15 0 9 -7 18 -15
21 -8 4 -15 12 -15 19 0 8 -6 20 -14 27 -16 17 -30 115 -20 152 4 18 18 31 40
41 47 20 45 45 -4 45 -21 0 -47 6 -58 14 -11 8 -33 16 -49 18 -28 3 -30 6 -29
41 1 21 9 46 17 55 9 9 40 43 69 76 46 50 265 226 282 226 3 0 34 19 68 43 56
38 155 85 243 115 45 15 88 14 113 -4z m642 -993 c0 -24 -31 -40 -58 -30 -30
11 -30 56 1 68 25 10 57 -11 57 -38z m-30 -111 c0 -5 -2 -10 -4 -10 -3 0 -8 5
-11 10 -3 6 -1 10 4 10 6 0 11 -4 11 -10z"/>
<path d="M27037 9154 c-8 -9 -9 -48 -1 -56 3 -3 14 -3 25 -1 15 4 19 13 17 32
-3 25 -26 39 -41 25z"/>
<path d="M27667 9054 c-20 -20 -37 -39 -37 -43 1 -18 17 -28 36 -21 25 10 86
84 77 94 -15 14 -41 4 -76 -30z"/>
<path d="M27780 9002 c-8 -3 -51 -34 -95 -70 -71 -58 -88 -82 -70 -100 14 -15
127 71 177 133 18 23 11 45 -12 37z"/>
<path d="M27475 8926 c-57 -31 -80 -48 -80 -62 0 -33 67 -15 162 42 34 20 47
39 37 55 -9 16 -37 8 -119 -35z"/>
<path d="M27800 8886 c-21 -24 -22 -56 -2 -56 15 0 72 62 66 72 -10 16 -41 8
-64 -16z"/>
<path d="M27492 8813 c-62 -30 -54 -70 10 -52 44 12 69 34 62 54 -8 19 -31 19
-72 -2z"/>
<path d="M27670 8791 c-25 -15 -70 -42 -100 -58 -36 -20 -55 -37 -55 -49 0
-27 36 -21 111 17 82 43 129 82 121 103 -9 23 -25 20 -77 -13z"/>
<path d="M24514 9952 c-23 -16 -44 -58 -44 -89 0 -41 -26 -59 -97 -66 -105
-12 -185 -63 -228 -147 -20 -39 -23 -58 -20 -135 1 -50 10 -122 19 -161 15
-64 15 -78 1 -165 -23 -144 -20 -186 17 -258 47 -91 111 -129 205 -122 65 6
10 -70 -65 -89 -69 -17 -137 -49 -162 -75 -17 -19 -20 -28 -13 -55 8 -29 15
-34 61 -46 29 -8 66 -20 82 -29 35 -18 53 -12 103 32 43 38 68 41 122 12 110
-59 110 -59 166 -49 69 11 83 16 147 57 29 18 56 33 61 33 4 0 16 9 26 20 10
11 37 25 59 32 23 6 46 15 51 19 6 3 36 10 67 13 32 4 91 18 132 30 41 13 78
21 81 18 3 -3 5 1 5 8 0 7 3 10 7 7 3 -4 13 2 20 13 8 11 19 18 24 14 5 -3 8
-2 7 3 -2 4 8 26 22 48 21 34 25 53 25 120 0 57 6 89 19 113 9 19 15 36 12 39
-3 3 -85 -34 -183 -82 -98 -48 -194 -94 -213 -103 -19 -9 -43 -23 -52 -31 -15
-12 -21 -11 -43 3 -14 10 -29 24 -32 32 -7 18 -30 18 -66 -1 -67 -35 -210 -96
-214 -91 -9 9 9 28 41 42 17 8 45 23 61 34 17 11 44 27 60 36 46 25 65 45 65
68 0 19 56 66 78 66 5 0 29 15 53 33 24 18 71 48 104 67 94 52 195 120 195
130 0 5 10 12 21 15 32 11 108 84 129 125 24 48 42 141 34 176 -12 52 -55 120
-86 139 -54 31 -207 25 -338 -14 -58 -17 -121 -31 -140 -31 -20 0 -67 15 -106
34 -71 34 -116 71 -189 158 -40 47 -71 64 -91 50z"/>
<path d="M25890 9339 c0 -5 5 -7 10 -4 6 3 10 8 10 11 0 2 -4 4 -10 4 -5 0
-10 -5 -10 -11z"/>
<path d="M25706 9244 c-11 -7 -16 -17 -13 -21 4 -4 15 1 24 10 22 21 14 30
-11 11z"/>
<path d="M25580 9175 c-7 -8 -8 -15 -2 -15 5 0 15 7 22 15 7 8 8 15 2 15 -5 0
-15 -7 -22 -15z"/>
<path d="M25524 9145 c-10 -8 -14 -15 -8 -15 6 0 17 7 24 15 16 19 9 19 -16 0z"/>
<path d="M25469 9113 c-13 -16 -12 -17 4 -4 16 13 21 21 13 21 -2 0 -10 -8
-17 -17z"/>
<path d="M12037 8900 c-104 -5 -205 -14 -225 -21 -86 -28 -183 -111 -237 -202
-42 -73 -49 -180 -48 -847 0 -670 6 -774 49 -848 39 -66 103 -131 168 -171 53
-32 64 -34 189 -43 177 -13 1224 -13 1360 0 95 9 115 14 164 44 65 39 140 119
173 185 37 74 43 186 43 828 1 697 -5 779 -55 862 -39 65 -119 140 -185 173
-29 15 -77 26 -127 32 -120 12 -1052 18 -1269 8z m273 -439 c14 -28 13 -516
-2 -600 -14 -76 -43 -129 -90 -162 -29 -21 -44 -24 -128 -24 -79 0 -102 4
-137 23 -54 29 -65 48 -47 84 18 34 50 37 88 7 19 -15 41 -21 79 -21 68 -1 94
14 118 65 17 38 19 69 19 338 0 163 3 299 7 302 3 4 23 7 44 7 28 0 41 -5 49
-19z m220 0 c5 -11 10 -31 10 -45 0 -14 6 -43 14 -63 8 -21 21 -74 30 -118 27
-137 44 -229 51 -267 4 -28 11 -38 24 -38 14 0 20 10 25 38 4 20 13 53 20 72
24 64 37 104 61 190 58 210 78 244 132 224 19 -7 29 -23 44 -69 10 -33 24 -73
30 -90 5 -16 21 -70 33 -120 31 -120 64 -218 80 -241 12 -16 14 -15 21 17 3
19 12 52 20 74 7 22 21 85 30 140 10 55 24 120 31 144 8 25 14 54 14 65 0 12
9 40 20 64 18 39 22 42 60 42 42 0 44 -3 40 -60 -1 -14 -8 -50 -17 -80 -35
-128 -43 -159 -58 -235 -9 -44 -23 -100 -30 -125 -7 -25 -21 -79 -31 -120 -9
-41 -24 -100 -33 -130 -15 -53 -18 -55 -53 -58 -48 -4 -60 14 -97 154 -16 60
-36 134 -45 164 -9 30 -27 97 -41 149 -13 51 -26 96 -30 99 -7 7 -34 -29 -35
-48 0 -8 -14 -53 -31 -100 -16 -47 -40 -123 -53 -170 -60 -214 -87 -258 -146
-243 -19 5 -21 11 -59 153 -10 39 -54 235 -82 368 -5 24 -11 47 -13 51 -11 17
-44 204 -39 217 8 23 90 19 103 -5z m-618 -1131 l3 -125 55 -5 c30 -3 55 -9
55 -15 0 -15 -124 -18 -141 -4 -19 16 -21 275 -1 282 23 8 26 -8 29 -133z
m208 2 c0 -128 -10 -173 -30 -142 -15 23 -13 267 3 273 6 2 15 2 20 0 4 -2 7
-61 7 -131z m209 112 c32 -27 41 -70 20 -91 -9 -9 -8 -21 5 -48 38 -79 -13
-138 -114 -133 l-55 3 -3 134 c-1 74 0 141 2 148 4 8 24 13 60 13 44 0 60 -5
85 -26z m253 -4 c26 -27 30 -36 25 -68 -4 -21 -15 -43 -27 -51 -25 -17 -25
-41 0 -74 20 -26 26 -62 12 -71 -10 -6 -26 12 -65 72 -21 33 -34 42 -50 40
-18 -2 -23 -11 -27 -51 -3 -26 -9 -47 -15 -47 -13 0 -21 93 -17 198 l3 82 66
0 c59 0 67 -3 95 -30z m206 22 c7 -5 31 -62 53 -127 22 -65 45 -127 50 -137 8
-15 6 -18 -15 -18 -19 0 -27 8 -36 34 -12 38 -26 46 -75 46 -34 0 -75 -36 -75
-66 0 -8 -7 -14 -15 -14 -8 0 -15 7 -15 15 0 40 92 275 108 275 4 0 13 -4 20
-8z m300 -12 c34 -28 41 -91 13 -119 -24 -24 -27 -58 -8 -86 8 -11 16 -30 20
-42 9 -40 -18 -26 -59 30 -29 38 -46 52 -64 52 -23 0 -25 -4 -28 -50 -4 -61
-17 -78 -32 -41 -13 35 -13 232 0 257 15 28 125 27 158 -1z m127 -40 c17 -27
37 -50 45 -50 9 0 27 21 40 46 26 47 53 70 71 58 7 -4 5 -12 -4 -22 -37 -43
-87 -156 -87 -198 0 -32 -5 -46 -19 -53 -17 -9 -19 -5 -23 53 -4 46 -13 74
-34 107 -43 67 -63 106 -58 112 13 13 42 -9 69 -53z"/>
<path d="M12214 7406 c-10 -43 1 -58 42 -54 72 6 72 70 1 76 -32 3 -37 0 -43
-22z"/>
<path d="M12216 7294 c-3 -9 -6 -26 -6 -39 0 -42 11 -55 44 -55 36 0 76 34 76
64 0 10 -14 23 -35 32 -45 18 -71 18 -79 -2z"/>
<path d="M12454 7405 c-3 -14 -3 -36 0 -50 5 -20 13 -25 39 -25 40 0 77 24 77
50 0 26 -37 50 -77 50 -26 0 -34 -5 -39 -25z"/>
<path d="M12751 7344 c-12 -44 -4 -57 30 -52 32 4 34 27 5 62 l-24 29 -11 -39z"/>
<path d="M12966 7405 c-4 -14 -4 -36 0 -50 5 -20 12 -25 38 -25 38 0 76 24 76
49 0 28 -33 51 -72 51 -30 0 -37 -4 -42 -25z"/>
<path d="M25673 8418 c-11 -13 -60 -77 -109 -143 -107 -144 -203 -247 -261
-282 -32 -18 -41 -29 -34 -37 21 -25 41 -144 35 -200 -14 -117 -78 -172 -173
-148 -59 16 -87 47 -101 118 -11 51 -7 144 7 180 3 9 -14 13 -61 16 l-66 3 0
-127 c0 -71 0 -131 0 -135 -1 -5 16 -10 37 -13 30 -4 39 -10 41 -28 3 -23 3
-23 -110 -20 -105 3 -113 4 -113 23 0 16 8 21 43 23 l42 3 0 140 c0 76 -3 139
-8 139 -4 0 -24 -12 -45 -26 -37 -25 -39 -25 -52 -7 -15 19 -7 30 41 59 15 9
10 15 -41 43 -33 18 -153 96 -268 173 -114 76 -215 142 -223 145 -32 12 -111
-97 -141 -192 -17 -56 -18 -115 -18 -1000 l0 -940 28 -59 c36 -77 86 -138 158
-191 112 -82 -56 -76 2084 -73 l1900 3 68 32 c91 43 177 130 220 220 l32 68 3
905 c3 974 1 1004 -49 1105 -13 25 -24 45 -25 45 -1 0 -67 -47 -148 -104 -80
-57 -215 -151 -300 -208 -123 -81 -155 -108 -156 -125 0 -19 -6 -23 -31 -23
-18 0 -47 -9 -65 -21 -28 -17 -34 -27 -34 -55 0 -19 -1 -37 -2 -41 -2 -4 9
-14 25 -21 15 -7 27 -20 27 -28 0 -12 -14 -14 -77 -12 -81 3 -107 20 -59 38
18 7 26 17 26 35 l0 25 -62 -34 c-35 -19 -99 -46 -143 -61 -72 -25 -90 -27
-185 -23 -81 4 -119 10 -165 29 -60 25 -62 25 -100 7 -47 -21 -67 -22 -134 -6
l-51 11 0 49 c0 41 3 48 20 48 15 0 20 -7 20 -25 0 -14 8 -29 19 -35 22 -11
94 -14 104 -3 4 3 -12 22 -35 42 -22 19 -75 76 -116 126 -41 49 -78 91 -82 93
-3 1 -27 -38 -53 -87 -37 -69 -47 -99 -47 -135 0 -40 3 -48 25 -56 14 -5 25
-16 25 -25 0 -12 -14 -15 -69 -15 -80 0 -97 13 -58 42 42 31 37 77 -24 194
-28 55 -62 108 -75 119 -41 35 -31 45 46 45 62 0 70 -2 70 -19 0 -10 -9 -21
-20 -24 -19 -5 -19 -7 6 -63 47 -107 42 -105 85 -28 42 75 47 94 25 94 -23 0
-31 22 -13 35 14 10 -4 40 -134 228 l-150 217 -378 0 -378 0 -20 -22z m-78
-448 c68 -64 72 -259 5 -330 -58 -62 -172 -45 -212 33 -24 48 -29 168 -9 228
11 35 51 81 81 92 33 14 110 0 135 -23z m436 20 c51 -14 85 -56 104 -125 18
-70 13 -125 -18 -180 -36 -64 -74 -79 -204 -84 -99 -3 -113 -1 -113 13 0 9 11
21 25 26 l25 10 0 150 0 150 -25 10 c-14 5 -25 16 -25 25 0 12 17 15 98 15 53
0 113 -5 133 -10z m323 -17 c4 -16 30 -93 59 -173 44 -123 56 -147 80 -158 15
-7 27 -20 27 -28 0 -12 -14 -14 -77 -12 -52 2 -78 7 -81 16 -2 7 5 16 17 19
21 5 27 27 15 57 -5 13 -22 16 -78 16 -71 0 -72 0 -83 -31 -11 -28 -10 -31 13
-39 13 -5 24 -17 24 -25 0 -13 -12 -15 -72 -13 -75 3 -100 20 -55 37 27 10 39
38 102 222 42 125 51 139 80 139 17 0 25 -7 29 -27z m-867 -494 c53 -26 79
-57 97 -120 19 -63 7 -107 -41 -149 -41 -36 -68 -37 -147 -1 -53 23 -56 37
-21 89 32 47 32 58 -6 77 -64 34 -189 -22 -189 -83 0 -39 40 -82 178 -195 173
-142 237 -212 259 -285 52 -173 -12 -302 -192 -388 -237 -113 -571 -64 -684
99 -61 89 -65 179 -12 273 36 62 96 105 169 119 92 19 158 -7 164 -65 3 -21
-5 -27 -67 -52 -155 -62 -178 -160 -59 -247 60 -44 128 -63 222 -63 69 0 91 4
138 27 72 35 108 87 106 153 -2 96 -45 155 -215 295 -135 112 -187 195 -187
296 1 86 62 172 149 209 105 43 260 49 338 11z m1992 -27 c42 -22 75 -73 66
-101 -3 -10 -20 -29 -38 -41 -18 -13 -43 -36 -56 -52 -25 -31 -114 -223 -127
-272 l-7 -29 61 7 c87 10 148 30 143 47 -12 40 -12 77 0 84 7 5 26 11 43 14
28 6 34 14 61 91 41 114 81 184 128 226 35 32 43 35 76 29 52 -10 111 -45 127
-77 25 -48 18 -116 -20 -190 l-34 -67 26 -3 c17 -2 33 -14 45 -35 18 -31 18
-34 1 -61 -23 -40 -67 -64 -112 -62 -20 1 -42 2 -49 1 -16 -1 -59 -140 -80
-256 -13 -77 -14 -97 -3 -109 34 -41 128 1 185 84 31 44 49 50 65 21 16 -31
12 -54 -19 -102 -35 -55 -132 -123 -208 -145 -51 -15 -59 -15 -108 1 -112 35
-134 103 -100 314 9 52 14 96 11 98 -2 3 -14 -1 -26 -7 -12 -6 -64 -14 -116
-17 l-94 -6 39 -42 c67 -72 101 -197 82 -298 -25 -138 -134 -278 -242 -312
-68 -21 -138 -14 -174 18 -42 37 -55 174 -29 310 l6 28 -47 -36 c-93 -71 -142
-84 -214 -60 -42 14 -52 22 -65 56 -10 23 -16 69 -16 113 l0 74 -47 16 c-26 9
-48 16 -50 16 -2 0 -14 -25 -28 -55 -27 -63 -110 -156 -171 -191 -22 -13 -66
-29 -96 -35 -47 -9 -64 -9 -107 6 -27 9 -60 27 -73 40 l-22 23 -51 -29 c-79
-44 -150 -55 -216 -34 -67 22 -78 30 -100 80 -14 31 -19 65 -19 147 0 228 61
388 149 388 49 0 101 -21 118 -46 16 -24 15 -29 -1 -72 -72 -187 -93 -300 -62
-347 21 -32 81 -35 118 -5 23 18 26 27 30 119 4 84 9 109 34 158 33 66 80 103
131 103 51 0 69 -14 83 -65 15 -54 4 -119 -38 -224 -28 -70 -25 -86 21 -109
22 -11 32 -10 64 3 50 21 80 50 109 107 31 61 31 95 -1 120 -60 47 -75 141
-29 183 30 28 91 34 134 12 50 -25 70 -103 45 -169 -6 -16 33 -38 64 -38 15 0
22 13 31 53 14 56 47 129 76 165 40 49 150 46 172 -4 17 -36 15 -50 -18 -150
-36 -105 -68 -235 -62 -252 7 -21 47 -13 89 17 54 39 98 98 111 149 10 41 9
44 -14 53 -13 5 -35 13 -49 19 -18 7 -25 17 -25 35 0 21 9 30 43 45 23 11 50
20 59 20 11 0 20 11 24 28 59 268 144 454 226 496 40 21 114 15 167 -12z
m-468 -86 c49 -23 64 -57 39 -88 -10 -13 -35 -52 -55 -87 l-37 -63 -46 6 c-54
7 -78 27 -93 76 -14 46 1 107 38 151 24 28 31 31 72 27 25 -3 62 -12 82 -22z"/>
<path d="M25494 7953 c-43 -8 -56 -37 -63 -133 -7 -93 -2 -122 26 -152 19 -21
71 -24 96 -5 47 34 44 240 -4 280 -12 9 -24 16 -28 16 -3 -1 -16 -4 -27 -6z"/>
<path d="M25943 7953 l-43 -4 0 -150 0 -149 53 0 c90 0 131 49 129 157 -1 72
-21 117 -62 138 -16 8 -30 14 -32 13 -2 -1 -22 -3 -45 -5z"/>
<path d="M26293 7858 c-12 -35 -25 -71 -28 -80 -6 -16 0 -18 50 -18 42 0 56 3
53 13 -3 6 -15 42 -27 80 -13 37 -23 67 -24 67 -1 0 -12 -28 -24 -62z"/>
<path d="M27250 6719 c-7 -24 -27 -100 -46 -169 -46 -168 -56 -231 -39 -249
51 -53 166 111 182 260 7 71 -13 132 -56 173 l-30 28 -11 -43z"/>
<path d="M10425 8347 c-188 -63 -246 -147 -525 -768 -108 -239 -218 -503 -260
-624 -41 -116 -39 -188 7 -287 57 -121 101 -157 323 -265 107 -53 339 -160
515 -238 587 -261 632 -273 789 -214 120 44 205 157 349 465 l94 199 -46 27
c-87 51 -164 122 -220 204 -58 84 -62 87 -191 139 -25 10 -58 23 -75 30 -16 7
-60 23 -97 35 -37 13 -73 29 -79 36 -6 8 -20 14 -30 14 -14 0 -19 7 -19 27 0
19 14 40 48 73 52 49 260 192 305 209 l27 11 0 308 0 309 -97 43 c-609 268
-711 302 -818 267z m2 -193 c44 -21 148 -156 193 -249 57 -120 58 -124 100
-290 7 -27 18 -123 24 -212 l11 -161 -34 -11 c-20 -6 -39 -7 -45 -2 -6 5 -31
17 -56 27 -25 10 -60 28 -79 41 -18 12 -56 34 -85 48 -28 14 -60 30 -71 37
-26 15 -41 23 -92 48 -23 12 -64 43 -92 70 -49 47 -51 52 -51 103 0 36 5 59
15 67 8 7 15 21 15 30 0 10 8 33 17 52 9 18 20 41 25 51 5 9 11 39 15 65 3 26
10 50 15 53 5 3 12 26 15 50 3 24 9 49 13 54 5 6 13 28 19 50 13 45 27 66 56
83 26 15 31 15 72 -4z m643 -423 c0 -16 -7 -34 -15 -41 -8 -7 -15 -21 -15 -31
0 -9 -7 -24 -15 -33 -8 -8 -15 -18 -15 -22 0 -23 -46 -92 -71 -106 -23 -14
-29 -24 -29 -51 0 -40 15 -57 51 -57 42 0 59 24 57 81 -1 45 5 63 43 141 5 10
9 26 9 37 0 10 7 24 15 31 8 7 15 21 15 31 0 21 12 30 27 21 8 -5 9 -50 4
-154 l-8 -147 -36 -46 c-42 -54 -130 -114 -168 -115 -14 0 -37 10 -51 23 -22
20 -26 35 -32 108 -3 46 -3 99 2 117 8 38 72 119 120 152 18 13 47 40 63 62
34 42 49 42 49 -1z m-830 -447 c25 -4 50 -10 55 -14 6 -4 30 -11 55 -15 24 -4
51 -11 60 -15 20 -10 76 -30 125 -44 44 -13 92 -33 115 -47 8 -5 22 -12 31
-15 24 -8 13 -36 -25 -62 -42 -29 -107 -98 -176 -187 -30 -38 -60 -76 -67 -83
-7 -7 -13 -17 -13 -22 0 -15 -103 -115 -147 -143 -30 -19 -56 -27 -88 -27 -58
0 -94 18 -130 67 -28 35 -30 43 -35 168 -3 71 -10 137 -15 145 -5 8 -12 35
-16 60 -4 25 -13 66 -19 92 -10 41 -9 50 4 64 9 8 16 20 16 25 0 20 40 48 82
57 43 10 101 8 188 -4z m625 -111 c11 -14 11 -23 -1 -44 -16 -32 -39 -42 -65
-29 -22 12 -25 54 -6 75 17 20 57 18 72 -2z m92 -160 c12 -3 28 -11 34 -19 6
-8 17 -14 23 -14 13 0 218 -119 276 -161 33 -23 92 -73 132 -112 55 -52 50
-180 -7 -211 -11 -6 -22 -13 -25 -17 -3 -3 -30 -18 -60 -33 -30 -16 -57 -31
-60 -35 -3 -3 -22 -15 -44 -26 -21 -11 -41 -25 -43 -32 -3 -7 -11 -13 -18 -13
-7 0 -15 -7 -19 -15 -3 -8 -11 -15 -18 -15 -8 0 -29 -14 -48 -32 -47 -43 -122
-51 -173 -19 -69 42 -105 160 -79 256 7 22 12 58 12 81 0 22 7 54 15 70 8 16
15 59 16 94 1 36 5 70 9 75 16 22 20 95 7 133 -12 34 -12 41 2 50 9 6 23 8 31
5 8 -3 25 -8 37 -10z m-198 -18 c16 -8 31 -22 35 -31 10 -25 -5 -112 -20 -125
-8 -6 -14 -18 -14 -26 0 -7 -11 -26 -25 -41 -14 -15 -28 -36 -31 -47 -4 -10
-20 -30 -35 -44 -16 -14 -29 -31 -29 -37 0 -16 -28 -26 -52 -18 -17 5 -19 12
-13 57 4 29 11 57 15 62 4 6 11 34 15 62 4 29 11 55 16 59 5 3 9 14 9 25 0 22
8 33 58 85 39 39 35 38 71 19z"/>
<path d="M25145 7936 c-34 -10 -41 -17 -51 -51 -21 -70 -17 -157 9 -196 19
-29 29 -34 61 -34 61 0 79 32 79 142 0 85 -11 128 -37 145 -13 9 -11 9 -61 -6z"/>
</g>
</svg>
