<?xml version="1.0" encoding="UTF-8"?>
<!-- Generated by Pixelmator Pro 3.7 -->
<svg width="20" height="20" viewBox="0 0 20 20" xmlns="http://www.w3.org/2000/svg">
    <path id="Path" fill="none" stroke="#000000" stroke-width="1.666667" stroke-linecap="round" stroke-linejoin="round" d="M 17.5 13.333334 L 17.5 6 C 17.5 5.066584 17.5 4.599866 17.318333 4.24335 C 17.158583 3.929743 16.903584 3.674776 16.59 3.514992 C 16.2335 3.333332 15.766749 3.333332 14.833333 3.333332 L 5.166667 3.333332 C 4.233242 3.333332 3.766533 3.333332 3.410017 3.514992 C 3.096408 3.674776 2.841442 3.929743 2.681658 4.24335 C 2.5 4.599866 2.5 5.066584 2.5 6 L 2.5 13.333334 M 18.333332 13.333334 L 18.333332 13.999999 C 18.333332 14.933416 18.333332 15.400167 18.151667 15.756667 C 17.991917 16.07025 17.736917 16.325249 17.423334 16.485001 C 17.066833 16.666666 16.600082 16.666666 15.666666 16.666666 L 4.333333 16.666666 C 3.399916 16.666666 2.9332 16.666666 2.576684 16.485001 C 2.263075 16.325249 2.008108 16.07025 1.848325 15.756667 C 1.666667 15.400167 1.666667 14.933416 1.666667 13.999999 L 1.666667 13.333334 L 6.947717 13.333334 C 7.151542 13.333334 7.25345 13.333334 7.349359 13.356333 C 7.434392 13.376749 7.515676 13.410418 7.590234 13.456167 C 7.674333 13.507667 7.7464 13.57975 7.890525 13.723833 L 7.942809 13.776167 C 8.086933 13.92025 8.159 13.992333 8.2431 14.043834 C 8.317658 14.089582 8.398916 14.123251 8.484 14.143667 C 8.579917 14.166667 8.681833 14.166667 8.885583 14.166667 L 11.114417 14.166667 C 11.318167 14.166667 11.420083 14.166667 11.516 14.143667 C 11.601084 14.123251 11.682333 14.089582 11.756917 14.043834 C 11.841 13.992333 11.913084 13.92025 12.057167 13.776167 L 12.1095 13.723833 C 12.253584 13.57975 12.325666 13.507667 12.40975 13.456167 C 12.484334 13.410418 12.565583 13.376749 12.650667 13.356333 C 12.746584 13.333334 12.8485 13.333334 13.052249 13.333334 L 18.333332 13.333334 Z"/>
</svg>
